<svg width="338" height="362" viewBox="0 0 338 362" fill="none" xmlns="http://www.w3.org/2000/svg">
<path d="M22.1864 223.639C21.7785 283.641 22.2987 338.816 22.2987 338.816C22.2674 350.976 87.1439 360.99 167.207 361.181C247.263 361.376 312.19 351.673 312.219 339.517C313.056 330.412 312.866 273.668 312.748 225.39L22.1864 223.639Z" fill="#999893"/>
<path d="M169.546 361.683H167.205C85.6372 361.484 21.766 351.441 21.7982 338.816C21.792 338.268 21.2841 282.956 21.688 223.637C21.6885 223.505 21.7413 223.379 21.835 223.286C21.9286 223.193 22.0554 223.141 22.1875 223.141H22.1916L312.753 224.892C312.885 224.893 313.011 224.946 313.104 225.039C313.197 225.132 313.25 225.258 313.25 225.39L313.269 233.319C313.383 279.071 313.514 330.927 312.72 339.563C312.689 351.947 249.8 361.683 169.546 361.683ZM22.6838 224.141C22.2862 283.263 22.794 338.26 22.7983 338.812C22.7691 350.482 88.9004 360.492 167.207 360.683L169.54 360.687C207.744 360.687 243.569 358.446 270.412 354.375C296.652 350.395 311.707 344.979 311.719 339.513C312.51 330.885 312.381 279.051 312.269 233.321L312.25 225.888L22.6838 224.141Z" fill="#7D7D77"/>
<g style="mix-blend-mode:multiply">
<path d="M48.2343 244.26C42.8827 243.68 37.6498 242.296 32.7129 240.156C28.9502 238.259 25.408 235.952 21.6826 234.001C22.5922 234.477 21.6681 245.889 21.6577 247.253C21.6202 252.208 21.5829 257.163 21.6411 262.12C21.7035 267.397 21.7514 272.67 21.6327 277.947C21.537 282.147 20.6629 287.567 22.3403 291.559C24.0878 295.73 30.2695 296.336 34.0885 297.39C43.3934 299.95 56.5133 303.627 64.0199 295.091C68.6839 289.789 70.4446 282.721 73.4352 276.457C76.4175 270.21 81.5832 265.135 83.5103 258.367C84.4523 254.777 85.0708 251.11 85.3582 247.41C72.9301 247.127 60.5316 246.075 48.2343 244.26Z" fill="#B6B3AD"/>
<path d="M68.5965 297.979C68.7589 300.693 70.6611 302.814 75.7933 303.777C81.9994 304.939 92.3677 308.973 98.0369 304.839C105.735 299.224 96.7506 285.786 94.0943 279.8C92.981 277.285 87.8114 261.604 83.0225 269.369C79.6615 274.822 76.5626 280.404 73.3826 285.964C71.0066 290.123 68.3883 294.526 68.5965 297.979Z" fill="#B6B3AD"/>
<path d="M159.215 254.199C156.744 252.528 154.117 251.099 151.369 249.933C137.785 250.182 124.172 249.912 110.597 249.535C106.203 249.41 96.0837 246.333 92.3698 249.422C83.6017 256.729 96.9006 267.965 99.7787 273.692C101.878 277.888 103.579 282.27 104.859 286.781C106.678 293.177 106.94 299.846 113.196 303.506C120.074 307.536 129.25 307.208 136.896 308.308C156.94 311.18 159.201 283.839 160.709 270.119C161.121 266.351 162.535 262.199 161.687 258.411C161.35 256.774 160.481 255.294 159.215 254.199Z" fill="#B6B3AD"/>
<path d="M184.836 296.107C184.734 295.912 184.623 295.713 184.51 295.51C181.575 290.262 176.01 284.616 169.494 286.214C164.537 287.425 163.015 291.713 161.754 296.186C161.042 298.718 157.126 306.728 159.402 308.504C161.534 310.168 169.74 307.856 172.456 307.587C182 306.644 190.707 307.155 184.836 296.107Z" fill="#B6B3AD"/>
<path d="M227.38 287.324C227.426 284.04 227.262 280.757 226.89 277.494C226.199 270.737 230.569 249.392 223.528 245.367C220.423 243.588 212.806 246.278 209.347 246.498C204.298 246.825 199.246 247.091 194.2 247.419C185.41 247.996 175.82 247.481 167.166 249.212C164.545 249.735 166.846 267.414 167.461 269.626C170.552 280.777 181.43 286.374 188.392 294.717C191.247 298.283 194.927 301.106 199.116 302.942C203.305 304.778 207.879 305.573 212.444 305.259C224.148 304.765 227.128 296.518 227.38 287.324Z" fill="#B6B3AD"/>
<path d="M312.056 271.468C310.972 268.217 309.506 265.104 307.69 262.195C303.12 254.553 294.059 244.287 292.906 235.275C287.509 238.762 276.152 269.922 272.398 275.828C269.649 280.153 264.681 285.631 264.595 291.019C264.487 297.734 277.986 296.576 281.755 296.162C291.228 295.12 300.895 292.327 308.444 286.27C313.488 282.221 313.684 276.774 312.056 271.468Z" fill="#B6B3AD"/>
<path d="M312.096 259.143C313.592 257.711 313.726 252.967 313.763 251.594C313.917 245.559 313.307 239.533 313.151 233.507C313.168 232.531 313.117 231.555 312.999 230.586H304.173C301.734 231.403 299.361 232.222 297.11 232.904C298.624 238.098 300.546 243.166 302.858 248.06C304.639 251.662 306.438 256.503 309.751 258.985C310.775 259.748 311.533 259.681 312.096 259.143Z" fill="#B6B3AD"/>
<path d="M280.535 241.471C280.543 241.042 280.543 240.613 280.535 240.185C273.193 239.006 262.067 243.551 254.42 244.634C246.612 245.739 238.77 246.613 230.916 247.369C227.559 248.419 233.068 286.485 233.172 290.567C233.605 307.574 253.109 298.082 258.894 290.204C264.022 283.234 266.832 274.749 271.113 267.258C275.651 259.317 280.298 250.892 280.535 241.471Z" fill="#B6B3AD"/>
<path d="M36.817 334.072C37.6178 331.81 38.1959 329.475 38.5432 327.1C39.33 324.428 40.2291 321.697 40.9407 318.953C41.1947 317.821 41.4424 316.683 41.6943 315.534C42.4761 311.897 42.2895 308.12 41.1532 304.578C40.2892 303.276 39.1656 302.165 37.8523 301.316C35.5673 299.842 32.6736 299.809 30.1589 298.913C27.1683 297.85 22.6022 294.705 20.3065 298.274C17.1738 303.146 19.6572 309.944 20.6083 315.111C21.4595 319.734 19.9195 324.664 20.3898 329.337C21.1389 336.791 30.7083 341.156 35.9924 335.263C36.316 334.902 36.593 334.502 36.817 334.072Z" fill="#B6B3AD"/>
<path d="M178.349 315.219C173.588 309.853 164.593 312.193 158.491 313.513C149.265 315.484 139.725 315.488 130.497 313.525C120.114 311.479 120.724 322.975 121.342 329.703C122.116 338.127 122.141 347.95 129.962 353.109C135.469 356.745 140.984 355.255 147.057 355.354C152.342 355.441 157.629 355.387 162.915 355.28C167.257 355.188 172.548 355.537 176.466 353.267C181.28 350.478 180.709 345.336 180.356 340.43C179.848 333.326 183.297 322.846 179.328 316.522C179.038 316.062 178.711 315.626 178.349 315.219Z" fill="#B6B3AD"/>
<path d="M215.153 311.583C212.676 308.562 208.585 309.363 204.784 309.62C196.318 310.189 182.911 308.84 183.575 320.8C184.089 330.072 184.959 339.339 185.534 348.61C186.262 350.187 186.978 351.773 187.694 353.358C191.827 355.159 197.421 354.964 201.425 354.753C206.625 354.483 212.506 355.396 217.167 352.428C223.02 348.702 221.29 340.816 220.144 335.081C219.214 331.402 218.503 327.671 218.014 323.909C218.038 320.181 217.37 316.48 216.044 312.994C215.802 312.491 215.503 312.018 215.153 311.583Z" fill="#B6B3AD"/>
<path d="M268.256 304.98C264.366 299.735 256.493 301.191 250.691 302.245C243.805 303.499 237.6 307.163 230.679 308.263C221.979 309.641 220.143 310.666 221.18 319.742C222.36 327.71 224.159 335.575 226.562 343.264C230.585 357.765 244.643 354.088 256.341 351.008C258.068 350.552 261.992 350.195 263.315 348.958C266.754 345.75 266.51 334.205 267.203 329.797C268.346 322.568 272.639 313.981 269.264 306.694C268.985 306.091 268.648 305.517 268.256 304.98Z" fill="#B6B3AD"/>
<path d="M309.343 293.526C304.885 292.949 298.277 297.71 293.996 298.515C287.894 299.664 278.185 297.846 275.316 304.495C274.795 306.935 274.699 309.558 274.293 312.052C272.965 320.153 270.703 328.225 270.686 336.513C270.671 343.551 274.026 344.634 280.037 342.688C286.463 340.609 292.853 338.505 299.462 336.741C303.899 335.55 308.907 334.068 311.964 330.366C315.706 325.835 314.247 320.643 314.162 315.235C314.075 309.919 317.588 294.597 309.343 293.526Z" fill="#B6B3AD"/>
<path d="M115.073 330.441C114.642 325.809 114.899 320.497 114.74 315.252C114.594 314.468 114.285 313.724 113.834 313.067C113.383 312.409 112.798 311.853 112.119 311.434C111.034 310.871 109.883 310.444 108.693 310.164C103.717 310.517 98.7215 310.508 93.7463 310.139C80.7556 308.931 68.0437 305.624 55.1114 304.076C52.5858 305.013 50.2735 306.443 48.3101 308.284C47.6399 312.675 46.5743 317.032 45.8167 321.473C44.88 326.972 44.0323 332.465 43.2734 337.953C43.9843 340.729 45.1741 343.36 46.7898 345.73C46.9479 345.921 47.0956 346.124 47.2642 346.315C48.4297 346.796 49.5992 347.273 50.7805 347.709C64.5184 352.764 77.5404 350.909 91.7923 351.104C98.7178 351.313 105.624 351.937 112.475 352.972C113.699 352.486 114.75 351.646 115.493 350.56C116.196 349.425 116.776 348.219 117.224 346.962C116.38 341.481 115.594 335.986 115.073 330.441Z" fill="#B6B3AD"/>
</g>
<path d="M46.6319 242.41C41.1887 241.83 35.8622 240.447 30.8273 238.305C26.9981 236.406 23.3852 234.101 19.5933 232.15C20.5214 232.626 19.5786 244.04 19.5681 245.402C19.5308 250.357 19.4955 255.312 19.5558 260.269C19.6182 265.546 19.6659 270.819 19.5432 276.096C19.4475 280.296 18.5588 285.716 20.2633 289.708C22.0449 293.879 28.3424 294.485 32.228 295.539C41.7037 298.099 55.0648 301.777 62.7068 293.24C67.4541 287.94 69.2493 280.868 72.2928 274.606C75.327 268.36 80.5924 263.284 82.5528 256.516C83.5121 252.928 84.1432 249.261 84.4385 245.559C71.7837 245.278 59.158 244.226 46.6319 242.41Z" fill="#B6B3AD"/>
<path d="M49.1374 299.066C43.4072 298.79 37.7361 297.782 32.2634 296.066L32.097 296.02C31.415 295.834 30.6546 295.664 29.8593 295.485C26.0778 294.63 21.3702 293.568 19.8004 289.905C18.6984 286.387 18.39 282.669 18.8972 279.017C18.9597 278.001 19.0221 277.013 19.043 276.085C19.1636 270.833 19.1178 265.61 19.0554 260.276C18.9929 255.217 19.034 250.001 19.0679 245.398C19.0698 245.103 19.1178 244.33 19.1781 243.296C19.53 239.721 19.5641 236.121 19.2802 232.539C19.1895 232.467 19.1269 232.366 19.1029 232.254C19.079 232.141 19.0953 232.023 19.1491 231.921C19.1791 231.863 19.2202 231.811 19.2703 231.769C19.3203 231.726 19.3782 231.694 19.4407 231.675C19.5032 231.655 19.5689 231.647 19.6342 231.653C19.6996 231.659 19.7631 231.677 19.8213 231.707C21.586 232.616 23.3364 233.612 25.0283 234.579C26.9846 235.693 29.0034 236.845 31.0491 237.86C35.671 239.862 40.5662 241.167 45.5738 241.732L46.7141 241.918C59.2196 243.732 71.8245 244.782 84.4585 245.063C84.5266 245.065 84.5935 245.082 84.6549 245.111C84.7162 245.141 84.7705 245.183 84.8144 245.235C84.8593 245.286 84.8932 245.346 84.9136 245.411C84.934 245.475 84.9405 245.543 84.9329 245.611C84.6404 249.343 84.0051 253.04 83.0349 256.656C81.6612 260.625 79.664 264.35 77.118 267.694C75.4887 269.961 74.0266 272.344 72.7435 274.823C71.8339 276.693 71.0202 278.677 70.2356 280.596C68.6101 285.297 66.1902 289.686 63.0805 293.574C61.3069 295.458 59.1369 296.928 56.7263 297.878C54.3156 298.827 51.724 299.233 49.1374 299.066ZM20.4048 233.138C20.5628 236.545 20.4864 239.959 20.1759 243.356C20.1177 244.362 20.0719 245.115 20.0693 245.406C20.034 250.004 19.9943 255.213 20.0548 260.263C20.1188 265.608 20.1672 270.842 20.0423 276.108C20.021 277.046 19.9611 278.048 19.8986 279.08C19.4083 282.576 19.6889 286.138 20.7208 289.515C22.0901 292.709 26.519 293.709 30.0799 294.514C30.8897 294.692 31.6635 294.871 32.3587 295.058L32.523 295.103C37.9119 296.792 43.4951 297.788 49.137 298.066C51.5821 298.23 54.0333 297.852 56.3148 296.961C58.5964 296.069 60.6518 294.685 62.3338 292.908C65.3652 289.103 67.7237 284.81 69.3079 280.215C70.1009 278.283 70.9207 276.287 71.8426 274.388C73.1472 271.864 74.6343 269.438 76.2922 267.129C78.7754 263.872 80.7267 260.243 82.0737 256.378C82.9889 252.992 83.5952 249.53 83.8852 246.036C71.3869 245.751 58.9179 244.704 46.5479 242.9L45.4116 242.716C40.3049 242.138 35.3138 240.801 30.6041 238.75C28.5333 237.723 26.4979 236.565 24.5332 235.441C23.1853 234.674 21.8013 233.886 20.4048 233.138Z" fill="#7D7D77"/>
<path d="M66.5321 296.942C66.6964 299.656 68.634 301.785 73.8619 302.744C80.1762 303.906 90.7361 307.939 96.5093 303.802C104.347 298.195 95.2023 284.753 92.4967 278.764C91.3625 276.254 86.0992 260.57 81.223 268.335C77.7996 273.788 74.6445 279.37 71.4041 284.931C68.9836 289.089 66.3239 293.493 66.5321 296.942Z" fill="#B6B3AD"/>
<path d="M89.6955 306.126C85.7882 305.939 81.9157 305.301 78.1555 304.225C76.5674 303.839 75.0711 303.474 73.7703 303.237C68.7621 302.316 66.2323 300.266 66.0326 296.975C65.8222 293.514 68.2886 289.289 70.6695 285.201L70.9732 284.682C71.6766 283.47 72.3786 282.259 73.0794 281.047C75.5559 276.768 78.1159 272.344 80.8006 268.072C81.0964 267.426 81.5551 266.868 82.1318 266.453C82.7085 266.037 83.3835 265.778 84.0909 265.7C87.7892 265.7 90.9214 273.521 92.4259 277.279C92.6508 277.837 92.8308 278.281 92.9546 278.561C93.3958 279.536 94.0015 280.698 94.7022 282.043C98.284 288.906 103.697 299.274 96.8022 304.208C94.6986 305.586 92.2088 306.258 89.6955 306.126ZM84.0907 266.696C83.2623 266.696 82.4403 267.337 81.6454 268.601C78.973 272.857 76.4173 277.275 73.9469 281.545C73.2455 282.759 72.5428 283.972 71.8388 285.184L71.5349 285.703C69.2248 289.662 66.8399 293.754 67.0312 296.913C67.1979 299.681 69.4622 301.428 73.9533 302.254C75.281 302.499 76.792 302.868 78.3925 303.258C82.0761 304.309 85.8685 304.936 89.6953 305.126C91.9977 305.254 94.2813 304.649 96.2166 303.399C102.41 298.967 97.2365 289.061 93.815 282.504C93.1053 281.144 92.4913 279.972 92.0419 278.97C91.9106 278.681 91.7254 278.225 91.4966 277.65C90.2991 274.652 87.1105 266.696 84.0907 266.696Z" fill="#7D7D77"/>
<path d="M158.247 252.623C155.729 250.947 153.054 249.518 150.26 248.357C136.426 248.604 122.57 248.334 108.742 247.953C104.272 247.83 93.9661 244.753 90.1825 247.843C81.2544 255.149 94.7945 266.385 97.7288 272.115C99.8642 276.305 101.597 280.688 102.903 285.204C104.751 291.595 105.019 298.268 111.39 301.929C118.393 305.954 127.735 305.631 135.523 306.726C155.935 309.598 158.235 282.261 159.769 268.539C160.193 264.771 161.629 260.619 160.768 256.834C160.421 255.189 159.534 253.708 158.247 252.623Z" fill="#B6B3AD"/>
<path d="M138.414 307.437C137.423 307.436 136.432 307.363 135.452 307.221C133.479 306.943 131.44 306.761 129.279 306.57C122.973 306.001 116.451 305.416 111.138 302.362C105.825 299.307 104.634 294.327 103.373 289.06C103.082 287.84 102.778 286.576 102.422 285.342C101.123 280.857 99.4021 276.504 97.2834 272.342C96.2444 270.585 95.0625 268.917 93.7496 267.353C89.1086 261.417 82.7485 253.282 89.8662 247.458C91.5712 246.322 93.6132 245.799 95.6561 245.974C98.4172 246.062 101.168 246.355 103.885 246.852C105.496 247.143 107.122 247.344 108.755 247.456C117.716 247.7 128.335 247.954 139.159 247.954C142.986 247.954 146.716 247.92 150.25 247.858C150.338 247.849 150.427 247.871 150.501 247.92C151.477 248.456 152.51 248.921 153.504 249.369C155.324 250.081 157.031 251.049 158.574 252.245C159.941 253.4 160.884 254.975 161.255 256.723C161.685 259.545 161.537 262.425 160.822 265.189C160.599 266.372 160.389 267.492 160.268 268.596L160.11 270.007C158.67 283.089 155.989 307.437 138.414 307.437ZM95.6561 246.97C93.8441 246.804 92.0284 247.247 90.4988 248.23C84.1389 253.436 89.9057 260.813 94.5404 266.741C95.8957 268.351 97.1114 270.073 98.1742 271.888C100.322 276.108 102.066 280.521 103.383 285.068C103.748 286.322 104.051 287.597 104.347 288.829C105.554 293.882 106.697 298.655 111.64 301.498C116.759 304.444 123.171 305.017 129.37 305.573C131.541 305.768 133.593 305.951 135.593 306.233C136.527 306.368 137.468 306.437 138.411 306.44C155.094 306.44 157.613 283.565 159.115 269.897L159.273 268.483C159.401 267.346 159.623 266.155 159.837 265.004C160.521 262.373 160.672 259.632 160.28 256.942C159.959 255.401 159.128 254.013 157.92 252.999C156.447 251.87 154.822 250.953 153.092 250.277C152.118 249.839 151.11 249.385 150.134 248.856C146.636 248.918 142.944 248.949 139.159 248.949C128.322 248.949 117.696 248.698 108.728 248.451C107.051 248.343 105.381 248.138 103.727 247.837C101.062 247.349 98.3642 247.059 95.6561 246.97Z" fill="#7D7D77"/>
<path d="M184.339 294.531C184.233 294.336 184.122 294.136 184.008 293.933C181.018 288.683 175.351 283.039 168.718 284.633C163.667 285.848 162.122 290.136 160.836 294.609C160.11 297.141 156.122 305.151 158.441 306.927C160.61 308.587 168.968 306.275 171.731 306.01C181.45 305.064 190.316 305.574 184.339 294.531Z" fill="#B6B3AD"/>
<path d="M161.186 308.022C160.12 308.117 159.051 307.872 158.135 307.321C156.043 305.719 158.033 300.593 159.486 296.85C159.869 295.87 160.197 295.02 160.356 294.468C161.715 289.749 163.367 285.406 168.601 284.148C169.39 283.957 170.199 283.86 171.011 283.86C178.278 283.86 183.128 291.38 184.443 293.688L184.776 294.289C186.787 297.999 187.274 300.705 186.266 302.56C184.714 305.416 180.019 305.806 174.578 306.258C173.662 306.337 172.726 306.411 171.781 306.507C171.082 306.573 169.996 306.781 168.739 307.017C166.254 307.564 163.727 307.9 161.186 308.022ZM171.01 284.856C170.277 284.856 169.546 284.944 168.834 285.117C164.118 286.25 162.64 290.147 161.316 294.745C161.146 295.339 160.809 296.206 160.419 297.21C159.311 300.065 157.246 305.382 158.744 306.531C159.488 306.942 160.34 307.113 161.185 307.021C163.664 306.899 166.127 306.57 168.551 306.038C169.833 305.793 170.94 305.585 171.683 305.51C172.634 305.419 173.575 305.34 174.495 305.266C179.644 304.838 184.093 304.465 185.384 302.087C186.22 300.551 185.733 298.152 183.898 294.766L183.573 294.176C181.005 289.673 176.355 284.856 171.01 284.856Z" fill="#7D7D77"/>
<path d="M227.661 284.927C227.709 281.643 227.542 278.36 227.161 275.098C226.456 268.343 230.907 246.995 223.74 242.972C220.577 241.194 212.818 243.883 209.296 244.103C204.156 244.427 199.011 244.692 193.873 245.024C184.922 245.598 175.157 245.086 166.345 246.815C163.677 247.338 166.02 265.019 166.645 267.231C169.796 278.381 180.87 283.977 187.958 292.318C190.898 295.9 194.657 298.727 198.918 300.561C203.18 302.395 207.821 303.183 212.452 302.86C224.37 302.366 227.403 294.124 227.661 284.927Z" fill="#B6B3AD"/>
<path d="M210.912 303.391C206.459 303.482 202.044 302.562 198.001 300.7C193.958 298.838 190.394 296.082 187.577 292.642C185.122 289.902 182.476 287.337 179.659 284.967C174.077 280.039 168.306 274.945 166.165 267.367C165.678 265.642 163.437 250.138 165.367 247.002C165.458 246.833 165.583 246.686 165.735 246.57C165.888 246.453 166.063 246.371 166.25 246.328C172.401 245.319 178.626 244.827 184.86 244.859C187.838 244.788 190.918 244.713 193.842 244.527C196.556 244.352 199.27 244.197 201.983 244.041C204.41 243.899 206.837 243.754 209.265 243.605C210.677 243.454 212.079 243.217 213.463 242.898C215.838 242.328 218.262 241.984 220.702 241.868C221.836 241.808 222.967 242.039 223.986 242.539C229.388 245.572 228.577 257.209 227.923 266.562C227.635 269.38 227.547 272.215 227.659 275.046C228.04 278.33 228.208 281.635 228.161 284.94C227.825 296.913 222.695 302.939 212.473 303.363C211.948 303.383 211.428 303.391 210.912 303.391ZM220.701 242.866C218.33 242.984 215.974 243.321 213.665 243.875C212.235 244.205 210.787 244.447 209.328 244.601C206.899 244.755 204.47 244.899 202.042 245.035C199.328 245.19 196.618 245.348 193.906 245.522C190.961 245.711 187.871 245.784 184.884 245.854C178.707 245.824 172.539 246.309 166.443 247.305C166.379 247.317 166.299 247.398 166.22 247.522C164.609 250.133 166.566 265.106 167.128 267.094C169.188 274.39 174.849 279.387 180.322 284.221C183.175 286.622 185.854 289.221 188.339 292C191.064 295.326 194.513 297.991 198.423 299.792C202.334 301.593 206.605 302.484 210.912 302.396C211.415 302.396 211.921 302.384 212.431 302.363C222.158 301.96 226.839 296.416 227.161 284.914C227.208 281.652 227.042 278.391 226.664 275.151C226.543 272.262 226.63 269.369 226.926 266.493C227.526 257.899 228.348 246.133 223.495 243.406C222.623 242.999 221.663 242.814 220.701 242.866Z" fill="#7D7D77"/>
<path d="M313.884 269.073C312.777 265.816 311.286 262.703 309.441 259.798C304.785 252.157 295.559 241.89 294.387 232.88C288.889 236.365 277.326 267.525 273.502 273.431C270.699 277.755 265.642 283.233 265.553 288.622C265.445 295.335 279.191 294.181 283.027 293.766C292.673 292.72 302.519 289.932 310.205 283.872C315.341 279.823 315.541 274.378 313.884 269.073Z" fill="#B6B3AD"/>
<path d="M277.043 294.609C271.734 294.609 268.133 293.688 266.348 291.883C265.919 291.456 265.583 290.945 265.361 290.383C265.138 289.82 265.035 289.219 265.056 288.615C265.126 284.28 268.219 279.997 270.945 276.22C271.724 275.141 272.46 274.124 273.083 273.161C275.446 268.78 277.576 264.277 279.463 259.673C284.614 248.007 290.454 234.781 294.117 232.458C294.188 232.413 294.27 232.386 294.354 232.381C294.439 232.375 294.523 232.391 294.6 232.427C294.676 232.463 294.741 232.517 294.791 232.584C294.84 232.652 294.872 232.73 294.883 232.813C295.717 239.23 300.777 246.384 305.239 252.698C306.958 255.128 308.581 257.424 309.867 259.538C311.744 262.472 313.253 265.624 314.361 268.923C316.408 275.476 315.116 280.635 310.517 284.262C303.657 289.67 294.425 293.031 283.082 294.26C281.077 294.485 279.061 294.602 277.043 294.609ZM294.025 233.802C290.514 237.122 284.696 250.299 280.379 260.076C278.473 264.73 276.318 269.278 273.923 273.701C273.287 274.685 272.543 275.714 271.757 276.801C269.118 280.462 266.121 284.612 266.056 288.629C266.036 289.101 266.115 289.572 266.288 290.011C266.461 290.451 266.725 290.849 267.062 291.181C268.631 292.771 272.081 293.609 277.041 293.609C279.023 293.603 281.005 293.489 282.974 293.269C294.129 292.061 303.187 288.77 309.896 283.481C314.196 280.089 315.345 275.426 313.405 269.221C312.317 266.002 310.841 262.925 309.012 260.058C307.742 257.973 306.129 255.69 304.421 253.275C300.086 247.141 295.195 240.222 294.025 233.802Z" fill="#7D7D77"/>
<path d="M313.926 256.749C315.449 255.317 315.586 250.574 315.622 249.2C315.782 243.166 315.158 237.138 314.999 231.11C315.018 230.135 314.966 229.16 314.843 228.193H305.859C303.374 229.008 300.957 229.829 298.666 230.509C300.209 235.708 302.166 240.776 304.519 245.665C306.331 249.267 308.165 254.11 311.538 256.592C312.577 257.354 313.351 257.285 313.926 256.749Z" fill="#B6B3AD"/>
<path d="M312.947 257.657C312.322 257.622 311.724 257.389 311.241 256.991C308.477 254.484 306.35 251.359 305.035 247.873C304.706 247.186 304.39 246.518 304.073 245.887C301.71 240.974 299.743 235.881 298.191 230.656C298.171 230.594 298.163 230.528 298.169 230.462C298.174 230.396 298.193 230.332 298.224 230.274C298.255 230.215 298.297 230.163 298.349 230.121C298.4 230.079 298.46 230.048 298.524 230.029C300.324 229.494 302.179 228.88 304.141 228.232L305.7 227.718C305.751 227.701 305.804 227.693 305.858 227.693H314.843C315.439 227.693 315.461 228.021 315.498 231.005C315.559 233.337 315.686 235.621 315.806 237.827C316.01 241.554 316.222 245.409 316.122 249.211C316.014 253.394 315.39 256.054 314.266 257.108C313.916 257.457 313.442 257.654 312.947 257.657ZM299.295 230.839C300.801 235.847 302.698 240.73 304.968 245.443C305.287 246.078 305.608 246.75 305.938 247.446C307.194 250.778 309.213 253.772 311.836 256.188C312.571 256.729 313.116 256.819 313.583 256.385C314.1 255.897 314.99 254.312 315.121 249.184C315.221 245.422 315.011 241.59 314.807 237.884C314.684 235.67 314.558 233.379 314.499 231.123V231.017C314.483 229.687 314.451 229.021 314.426 228.689H305.939L304.455 229.179C302.662 229.773 300.958 230.337 299.295 230.839Z" fill="#7D7D77"/>
<path d="M281.786 239.073C281.796 238.645 281.801 238.216 281.788 237.788C274.312 236.612 262.982 241.152 255.195 242.237C247.246 243.342 239.261 244.219 231.259 244.97C227.844 246.02 233.454 284.088 233.559 288.168C233.998 305.175 253.861 295.684 259.754 287.809C264.972 280.835 267.836 272.352 272.194 264.861C276.814 256.92 281.545 248.496 281.786 239.073Z" fill="#B6B3AD"/>
<path d="M241.598 298.162C238.506 298.162 233.285 296.863 233.059 288.182C233.034 287.204 232.668 284.083 232.207 280.135C229.568 257.614 228.611 245.266 231.112 244.496C231.145 244.486 231.178 244.478 231.212 244.474C240.078 243.642 247.899 242.748 255.125 241.744C258.198 241.234 261.242 240.564 264.245 239.737C269.082 238.282 274.073 237.397 279.117 237.098C280.037 237.093 280.957 237.159 281.868 237.297C281.983 237.315 282.089 237.373 282.166 237.46C282.242 237.548 282.286 237.66 282.288 237.776C282.301 238.212 282.297 238.65 282.286 239.086C282.034 248.942 276.819 257.906 272.628 265.113C270.938 268.02 269.443 271.137 267.997 274.154C265.844 279.047 263.218 283.72 260.157 288.106C256.597 292.862 248.1 298.162 241.598 298.162ZM231.378 245.46C231.161 245.593 230.171 246.811 230.966 258.122C231.465 265.232 232.468 273.777 233.199 280.018C233.684 284.148 234.033 287.131 234.058 288.157C234.212 294.05 236.818 297.162 241.596 297.162C247.807 297.162 255.939 292.078 259.353 287.511C262.374 283.176 264.966 278.559 267.093 273.725C268.547 270.689 270.05 267.551 271.76 264.613C275.893 257.504 281.038 248.66 281.283 239.061C281.292 238.783 281.296 238.503 281.294 238.223C280.571 238.134 279.843 238.091 279.115 238.094C274.156 238.396 269.249 239.271 264.493 240.702C261.454 241.539 258.374 242.216 255.265 242.732C248.04 243.735 240.227 244.63 231.378 245.46Z" fill="#7D7D77"/>
<path d="M35.5641 333.313C36.3769 331.052 36.9666 328.717 37.3249 326.341C38.124 323.664 39.0398 320.938 39.7618 318.194C40.0199 317.061 40.2718 315.921 40.529 314.775C41.3238 311.137 41.1342 307.355 39.9796 303.814C39.096 302.51 37.9508 301.402 36.6163 300.561C34.2917 299.079 31.3447 299.05 28.7829 298.154C25.7382 297.087 21.0866 293.946 18.7515 297.515C15.5631 302.387 18.0898 309.184 19.0575 314.351C19.9232 318.975 18.3562 323.901 18.8348 328.578C19.5965 336.027 29.3413 340.397 34.7226 334.5C35.0514 334.141 35.3341 333.742 35.5641 333.313Z" fill="#B6B3AD"/>
<path d="M28.5755 337.741C26.0544 337.706 23.6307 336.765 21.7499 335.091C19.8691 333.416 18.6577 331.121 18.3382 328.628C18.1875 326.423 18.2537 324.209 18.536 322.017C18.8948 319.505 18.9053 316.957 18.5671 314.443C18.3903 313.501 18.1622 312.504 17.9261 311.479C16.8418 306.752 15.614 301.399 18.3321 297.24C18.6941 296.648 19.2066 296.162 19.8177 295.832C20.4287 295.501 21.1167 295.337 21.8118 295.356C23.6445 295.526 25.4261 296.052 27.0563 296.904C27.7348 297.203 28.3758 297.485 28.9502 297.685C29.9071 297.995 30.8831 298.243 31.8722 298.428C33.6328 298.693 35.3311 299.272 36.8856 300.138C38.2775 301.018 39.4715 302.175 40.3924 303.538C40.4166 303.573 40.4362 303.61 40.4508 303.65C41.6493 307.269 41.8464 311.143 41.0211 314.863L40.9501 315.182C40.7171 316.228 40.484 317.27 40.2509 318.307C39.7682 320.142 39.1979 321.972 38.6485 323.74C38.3612 324.657 38.0761 325.574 37.8056 326.483C37.5572 327.379 37.365 328.29 37.2302 329.21C37.0617 330.713 36.6476 332.18 36.0044 333.55C35.755 334.015 35.4488 334.447 35.0929 334.837C34.2777 335.757 33.2742 336.492 32.1499 336.993C31.0257 337.494 29.8069 337.749 28.5755 337.741ZM21.8118 296.352C21.2821 296.331 20.7565 296.453 20.2911 296.706C19.8256 296.959 19.4378 297.333 19.1692 297.788C16.6843 301.59 17.8623 306.723 18.9028 311.255C19.1402 312.297 19.3731 313.305 19.5521 314.26C19.9092 316.864 19.9021 319.506 19.5308 322.108C19.2576 324.237 19.1914 326.387 19.333 328.528C19.6227 330.778 20.7172 332.848 22.4152 334.358C24.1132 335.867 26.3007 336.715 28.5755 336.745C29.6676 336.752 30.7485 336.525 31.7451 336.08C32.7417 335.634 33.631 334.981 34.3528 334.164C34.6546 333.835 34.9133 333.47 35.123 333.077C35.7148 331.802 36.0937 330.439 36.2446 329.043C36.3866 328.082 36.5875 327.131 36.8462 326.195C37.1188 325.286 37.4039 324.365 37.6912 323.44C38.2406 321.684 38.8045 319.866 39.2791 318.069C39.5101 317.048 39.7411 316.011 39.974 314.965L40.0407 314.666C40.8243 311.143 40.6477 307.474 39.5293 304.042C38.6899 302.815 37.6077 301.773 36.3492 300.979C34.8954 300.178 33.3083 299.645 31.6644 299.407C30.6348 299.21 29.6186 298.95 28.6218 298.627C28.0099 298.411 27.3523 298.125 26.6571 297.817C25.1489 297.029 23.505 296.532 21.8118 296.352Z" fill="#7D7D77"/>
<path d="M177.178 313.368C172.329 308.002 163.169 310.346 156.955 311.662C147.557 313.633 137.851 313.638 128.451 311.674C117.879 309.628 118.499 321.124 119.127 327.852C119.914 336.276 119.939 346.1 127.906 351.258C133.513 354.894 139.128 353.404 145.313 353.503C150.695 353.59 156.077 353.536 161.459 353.429C165.883 353.337 171.269 353.686 175.261 351.416C180.163 348.627 179.581 343.485 179.222 338.58C178.699 331.475 182.212 320.996 178.17 314.671C177.878 314.209 177.546 313.773 177.178 313.368Z" fill="#B6B3AD"/>
<path d="M137.431 354.221C133.982 354.381 130.565 353.494 127.631 351.677C120.222 346.88 119.49 338.09 118.84 330.337C118.774 329.516 118.705 328.702 118.63 327.897C118.11 322.349 117.974 316.248 120.901 313.04C121.891 312.075 123.124 311.394 124.469 311.068C125.814 310.741 127.223 310.782 128.547 311.185C137.879 313.155 147.521 313.151 156.851 311.172L157.895 310.948C161.233 310.113 164.65 309.629 168.089 309.503C169.828 309.369 171.575 309.615 173.209 310.225C174.843 310.834 176.324 311.792 177.548 313.031C177.934 313.459 178.284 313.918 178.594 314.404C181.35 318.716 180.73 324.701 180.135 330.486C179.77 333.154 179.632 335.849 179.721 338.541L179.76 339.085C180.126 343.965 180.503 349.008 175.506 351.846C171.976 353.855 167.435 353.88 163.427 353.905C162.759 353.909 162.103 353.913 161.469 353.926C157.537 354.005 154.083 354.042 150.915 354.042C149.046 354.042 147.176 354.028 145.304 354L144.696 353.996C143.439 353.996 142.191 354.054 140.979 354.108C139.812 354.167 138.603 354.221 137.431 354.221ZM126.125 311.931C125.293 311.884 124.46 312.018 123.686 312.326C122.911 312.634 122.214 313.107 121.642 313.712C118.977 316.629 119.128 322.473 119.628 327.805C119.703 328.611 119.769 329.428 119.841 330.258C120.499 338.148 121.181 346.307 128.178 350.839C130.95 352.549 134.177 353.381 137.433 353.225C138.584 353.225 139.725 353.171 140.936 353.113C142.155 353.059 143.419 352.997 144.699 352.997L145.323 353.005C147.188 353.034 149.052 353.048 150.917 353.046C154.08 353.046 157.525 353.009 161.452 352.926C162.091 352.914 162.751 352.909 163.425 352.909C167.308 352.884 171.712 352.86 175.013 350.98C179.46 348.451 179.121 343.941 178.764 339.16L178.724 338.616C178.632 335.865 178.771 333.111 179.14 330.383C179.721 324.768 180.322 318.962 177.752 314.94C177.472 314.501 177.156 314.086 176.807 313.699C175.675 312.567 174.308 311.694 172.803 311.141C171.298 310.589 169.69 310.37 168.091 310.5C164.723 310.626 161.378 311.104 158.11 311.923L157.061 312.147C147.6 314.156 137.821 314.162 128.357 312.164C127.622 312.016 126.875 311.938 126.125 311.931Z" fill="#7D7D77"/>
<path d="M215.211 309.184C212.689 306.163 208.522 306.968 204.653 307.221C196.031 307.79 182.381 306.441 183.055 318.406C183.579 327.677 184.461 336.944 185.049 346.216C185.792 347.793 186.519 349.374 187.251 350.959C191.459 352.765 197.151 352.57 201.234 352.358C206.524 352.084 212.516 352.997 217.263 350.03C223.22 346.307 221.462 338.418 220.293 332.686C219.346 329.009 218.621 325.278 218.123 321.514C218.148 317.783 217.468 314.08 216.12 310.6C215.871 310.095 215.567 309.62 215.211 309.184Z" fill="#B6B3AD"/>
<path d="M196.951 352.989C193.579 353.128 190.214 352.594 187.053 351.416C186.939 351.369 186.847 351.28 186.795 351.168C186.066 349.586 185.338 348.005 184.595 346.429C184.569 346.372 184.553 346.31 184.549 346.246C184.285 342.059 183.953 337.801 183.631 333.684C183.244 328.688 182.843 323.521 182.555 318.433C182.405 317.128 182.523 315.806 182.904 314.548C183.284 313.291 183.918 312.124 184.768 311.12C188.256 307.319 195.04 307.086 201.026 306.883C202.279 306.84 203.494 306.8 204.62 306.725C205.097 306.696 205.579 306.655 206.062 306.617C207.128 306.526 208.227 306.435 209.284 306.435C210.452 306.333 211.628 306.499 212.722 306.92C213.816 307.342 214.799 308.008 215.594 308.867C215.976 309.333 216.302 309.841 216.568 310.381C217.843 313.452 218.505 316.74 218.518 320.064C218.552 320.541 218.585 321.01 218.62 321.474C218.898 324.09 219.37 326.681 220.031 329.227C220.298 330.356 220.556 331.476 220.785 332.588L220.86 332.966C222.037 338.731 223.651 346.629 217.53 350.455C213.79 352.792 209.226 352.799 205.555 352.799H205.53L204.554 352.795C203.49 352.795 202.358 352.799 201.259 352.858C199.919 352.927 198.472 352.989 196.951 352.989ZM187.623 350.573C190.613 351.638 193.779 352.12 196.951 351.993C198.449 351.993 199.881 351.93 201.207 351.86C202.329 351.802 203.478 351.798 204.553 351.798H205.555C209.097 351.798 213.5 351.793 216.997 349.606C222.533 346.149 221.064 338.949 219.881 333.164L219.802 332.786C219.578 331.681 219.319 330.57 219.056 329.45C218.382 326.857 217.903 324.217 217.625 321.552C217.587 321.084 217.554 320.61 217.518 320.133C217.51 316.94 216.882 313.779 215.67 310.824C215.439 310.354 215.155 309.911 214.823 309.505C214.125 308.753 213.261 308.174 212.299 307.814C211.336 307.455 210.303 307.324 209.282 307.434C208.266 307.434 207.188 307.521 206.144 307.608C205.657 307.651 205.165 307.687 204.685 307.72C203.546 307.795 202.322 307.836 201.057 307.882C195.267 308.077 188.707 308.297 185.507 311.792C184.743 312.696 184.174 313.748 183.838 314.881C183.501 316.015 183.403 317.206 183.55 318.379C183.84 323.454 184.241 328.617 184.628 333.605C184.945 337.697 185.276 341.926 185.54 346.089C186.243 347.582 186.937 349.077 187.623 350.573Z" fill="#7D7D77"/>
<path d="M269.284 302.586C265.322 297.336 257.305 298.793 251.399 299.851C244.385 301.105 238.067 304.765 231.018 305.864C222.16 307.242 220.291 308.271 221.349 317.344C222.549 325.316 224.381 333.182 226.828 340.866C230.924 355.37 245.238 351.689 257.151 348.61C258.908 348.157 262.903 347.8 264.252 346.564C267.753 343.355 267.507 331.806 268.212 327.399C269.376 320.174 273.746 311.582 270.308 304.299C270.027 303.694 269.684 303.12 269.284 302.586Z" fill="#B6B3AD"/>
<path d="M241.172 351.922C233.272 351.922 228.423 348.352 226.346 341.003L225.696 338.717C223.515 331.751 221.895 324.624 220.851 317.402C219.764 308.077 221.792 306.794 230.941 305.375C234.501 304.699 237.987 303.681 241.351 302.337C244.579 301.062 247.91 300.067 251.309 299.362C254.175 298.764 257.088 298.418 260.015 298.328C264.511 298.328 267.674 299.623 269.684 302.287C270.105 302.849 270.466 303.452 270.762 304.089C273.33 309.525 271.719 315.51 270.158 321.291C269.576 323.461 269.024 325.511 268.706 327.479C268.531 328.578 268.414 330.126 268.281 331.919C267.865 337.48 267.349 344.403 264.594 346.934C262.909 347.95 261.014 348.568 259.052 348.741C258.374 348.861 257.733 348.977 257.277 349.097C252.042 350.68 246.634 351.629 241.172 351.922ZM260.015 299.328C257.17 299.415 254.338 299.751 251.553 300.332C248.187 301.03 244.888 302.014 241.692 303.275C238.268 304.641 234.719 305.674 231.095 306.358C222.32 307.724 220.839 308.657 221.846 317.285C222.882 324.456 224.493 331.532 226.662 338.447L227.311 340.734C229.276 347.685 233.68 350.926 241.172 350.926C246.55 350.63 251.874 349.691 257.028 348.129C257.518 348 258.176 347.884 258.874 347.756C260.644 347.59 262.361 347.06 263.916 346.199C266.38 343.937 266.905 336.949 267.283 331.848C267.421 330.03 267.537 328.462 267.72 327.32C268.105 325.201 268.596 323.103 269.194 321.033C270.705 315.422 272.27 309.62 269.858 304.511C269.591 303.937 269.265 303.392 268.886 302.885C267.078 300.49 264.177 299.328 260.015 299.328Z" fill="#7D7D77"/>
<path d="M311.122 291.132C306.583 290.553 299.855 295.315 295.495 296.12C289.28 297.27 279.395 295.448 276.475 302.1C275.942 304.541 275.844 307.164 275.428 309.658C274.075 317.753 271.773 325.83 271.757 334.115C271.742 341.157 275.157 342.236 281.276 340.294C287.823 338.215 294.329 336.111 301.058 334.343C305.576 333.156 310.679 331.674 313.79 327.968C317.601 323.44 316.115 318.245 316.028 312.837C315.94 307.525 319.515 292.202 311.122 291.132Z" fill="#B6B3AD"/>
<path d="M276.753 341.646C276.077 341.688 275.4 341.591 274.763 341.361C274.126 341.131 273.543 340.773 273.051 340.31C271.659 338.56 271.015 336.334 271.257 334.114C271.463 328.221 272.246 322.362 273.596 316.621C274.062 314.314 274.545 311.924 274.936 309.575C275.109 308.533 275.228 307.446 275.344 306.395C275.482 304.918 275.696 303.448 275.985 301.992C278.291 296.718 284.503 296.402 289.987 296.12C291.8 296.07 293.609 295.906 295.402 295.63C297.459 295.103 299.452 294.356 301.348 293.402C304.767 291.866 308.336 290.277 311.185 290.638C318.334 291.547 317.41 301.785 316.8 308.558C316.644 310.28 316.509 311.766 316.526 312.832C316.544 313.965 316.626 315.111 316.705 316.215C317.013 320.51 317.304 324.569 314.172 328.291C311.063 331.989 306.051 333.546 301.183 334.828C295.065 336.434 289.021 338.355 283.173 340.215L281.429 340.767C279.924 341.295 278.347 341.591 276.753 341.646ZM310.324 291.58C307.322 291.943 304.415 292.87 301.758 294.31C299.792 295.301 297.722 296.072 295.586 296.61C293.749 296.896 291.896 297.065 290.037 297.116C284.591 297.394 278.957 297.684 276.932 302.299C276.659 303.59 276.497 305.072 276.339 306.503C276.222 307.57 276.102 308.671 275.923 309.741C275.527 312.102 275.044 314.5 274.578 316.821C273.241 322.496 272.463 328.288 272.255 334.114C272.029 336.069 272.567 338.035 273.758 339.605C275.094 340.941 277.391 341.003 281.125 339.817L282.869 339.265C288.728 337.401 294.786 335.475 300.93 333.861C305.837 332.57 310.482 331.126 313.406 327.648C316.276 324.237 316.001 320.373 315.708 316.285C315.627 315.165 315.543 314.007 315.527 312.845C315.51 311.729 315.643 310.218 315.802 308.468C316.38 302.077 317.251 292.415 311.056 291.627C310.814 291.596 310.569 291.581 310.324 291.58Z" fill="#7D7D77"/>
<path d="M113.858 329.138C113.373 324.029 115.138 317.929 112.992 313.094C109.958 306.259 97.8121 309.346 92.1429 308.832C84.3198 308.118 76.5944 306.669 68.871 305.288C62.8563 304.213 54.665 301.229 49.0375 304.636C44.2696 307.52 44.1884 315.244 43.3351 320.17C42.1862 326.81 39.0728 334.732 42.6482 341.161C47.4537 349.801 61.3539 349.673 69.8243 349.889C76.6013 350.063 83.377 349.706 90.1531 349.797C97.2042 350.008 104.237 350.632 111.215 351.665C112.455 351.185 113.524 350.347 114.284 349.258C114.999 348.125 115.591 346.918 116.048 345.66C115.19 340.173 114.387 334.679 113.858 329.138Z" fill="#B6B3AD"/>
<path d="M111.215 352.163C111.193 352.164 111.17 352.162 111.148 352.159C104.19 351.126 97.1768 350.504 90.145 350.295C87.0442 350.254 83.9454 350.308 80.8422 350.358C77.1669 350.42 73.4915 350.482 69.8098 350.387L68.5098 350.358C59.9124 350.163 46.9177 349.864 42.2118 341.406C39.29 336.148 40.7029 329.881 41.9496 324.353C42.2868 322.863 42.603 321.456 42.8424 320.082C42.9903 319.219 43.1171 318.269 43.2473 317.277C43.8715 312.567 44.6457 306.707 48.7748 304.21C50.8292 303.04 53.1705 302.467 55.5345 302.554C58.8077 302.692 62.0565 303.182 65.2245 304.014C66.5439 304.309 67.7884 304.591 68.958 304.799L70.9144 305.152C77.8618 306.397 85.0476 307.687 92.186 308.335C93.9544 308.419 95.7263 308.39 97.491 308.248C99.0395 308.165 100.642 308.073 102.253 308.073C106.469 308.073 111.553 308.621 113.449 312.892C114.595 316.24 114.929 319.811 114.423 323.313C114.252 325.235 114.23 327.168 114.357 329.094C114.898 334.771 115.726 340.374 116.542 345.582C116.555 345.666 116.546 345.752 116.517 345.831C116.048 347.124 115.441 348.362 114.706 349.525C113.897 350.703 112.75 351.609 111.415 352.123C111.352 352.15 111.284 352.164 111.215 352.163ZM87.7601 349.283C88.5592 349.283 89.3605 349.291 90.1616 349.299C97.1837 349.502 104.187 350.122 111.136 351.154C112.238 350.714 113.187 349.961 113.864 348.988C114.537 347.922 115.097 346.788 115.535 345.606C114.723 340.418 113.899 334.844 113.361 329.184C113.232 327.207 113.253 325.223 113.425 323.249C113.909 319.907 113.604 316.497 112.534 313.293C111.238 310.371 108.068 309.072 102.253 309.072C100.671 309.072 99.0814 309.16 97.5455 309.242C95.7323 309.386 93.9117 309.414 92.095 309.325C84.9131 308.674 77.7078 307.383 70.7379 306.13L68.7837 305.781C67.5903 305.565 66.3363 305.283 65.0043 304.984C61.9093 304.165 58.7342 303.684 55.5349 303.548C53.3542 303.463 51.193 303.988 49.2956 305.063C45.5745 307.313 44.8356 312.911 44.2404 317.406C44.1051 318.414 43.9802 319.377 43.8282 320.253C43.5849 321.652 43.2643 323.071 42.9272 324.573C41.6598 330.188 40.3485 335.998 43.0853 340.92C47.514 348.88 60.1635 349.171 68.5339 349.362L69.8367 349.391C73.4996 349.486 77.1624 349.424 80.8254 349.362C83.1357 349.324 85.4478 349.283 87.7601 349.283Z" fill="#7D7D77"/>
<g style="mix-blend-mode:multiply" opacity="0.6">
<path d="M312.852 291.63C312.854 288.209 312.856 284.682 312.854 281.076C313.951 279.293 314.615 277.28 314.794 275.196C314.972 273.113 314.661 271.016 313.884 269.074C313.584 268.123 313.235 267.188 312.84 266.272C312.836 263.525 312.831 260.753 312.827 257.97C312.935 257.699 313.028 257.423 313.106 257.142C313.415 257.102 313.703 256.963 313.926 256.747C315.45 255.315 315.587 250.572 315.622 249.198C315.783 243.164 315.158 237.136 315 231.108C315.019 230.133 314.967 229.158 314.844 228.191H312.756C312.751 227.252 312.751 226.319 312.747 225.389L22.186 223.638C22.1651 226.95 22.1457 230.242 22.1277 233.515C21.2891 233.048 20.4462 232.587 19.5929 232.15C20.521 232.625 19.5782 244.04 19.5677 245.401C19.5554 247.214 19.545 249.028 19.5366 250.844C20.563 249.662 21.909 248.799 23.4138 248.36C27.4139 247.219 31.2433 248.816 35.0393 250.012C40.1881 251.634 45.3368 253.265 50.5566 254.649C68.8604 259.499 87.4059 260.424 106.234 261.126C125.483 261.842 144.705 263.126 163.947 264.01C182.847 264.921 201.783 264.723 220.659 263.416C236.229 262.308 251.696 259.457 267.263 258.37C268.695 258.101 270.133 257.861 271.577 257.652C274.972 256.935 278.44 256.624 281.908 256.726C287.324 257.262 288.876 261.078 289.933 265.919C290.924 270.01 291.615 274.166 292.002 278.357C292.206 281.264 292.493 284.665 290.805 287.244C288.42 290.89 284.314 292.401 280.206 293.521C285.109 293.405 290.562 292.903 294.262 295.912C294.369 296.022 294.428 296.169 294.428 296.322C294.428 296.476 294.369 296.623 294.262 296.733C293.908 297.157 293.592 297.605 293.272 298.049C296.362 297.991 300.079 297.999 301.563 301.054C303.303 304.619 302.273 309.636 301.871 313.388C301.346 318.276 301.713 323.456 300.064 328.166C298.497 332.64 295.101 334.308 291.915 337.18C295.113 336.877 299.419 336.338 300.331 340.002C300.851 342.689 300.918 345.444 300.529 348.153C308.042 345.509 312.212 342.592 312.219 339.517C312.381 337.782 312.502 334.321 312.593 329.523C312.768 329.27 312.922 329.009 313.068 328.747C313.317 328.498 313.561 328.241 313.79 327.967C317.6 323.439 316.114 318.243 316.027 312.836C315.948 307.931 318.979 294.514 312.852 291.63Z" fill="#B6B3AD"/>
</g>
<path d="M322.311 195.783L317.459 197.323L45.6752 195.783C44.1291 195.343 14.57 190.504 12.8052 194.463C11.0404 198.423 12.5846 234.055 12.5846 234.055C12.5846 246.813 81.919 257.151 167.449 257.151C252.979 257.151 322.311 246.813 322.311 234.055C323.412 221.958 322.311 195.783 322.311 195.783Z" fill="#B6B3AD"/>
<path d="M167.448 257.649C80.3254 257.649 12.0836 247.286 12.0836 234.055C12.0212 232.619 10.556 198.282 12.346 194.262C12.6976 193.472 13.861 192.417 19.8548 192.417C28.5437 192.72 37.197 193.679 45.7405 195.286L317.38 196.826L322.158 195.311C322.231 195.287 322.309 195.281 322.385 195.292C322.46 195.304 322.533 195.333 322.595 195.377C322.659 195.421 322.711 195.478 322.748 195.545C322.786 195.612 322.807 195.687 322.811 195.763C322.82 196.027 323.9 222.11 322.807 234.102C322.812 247.286 254.566 257.649 167.448 257.649ZM19.8548 193.418C14.4063 193.418 13.4281 194.291 13.2596 194.667C11.9027 197.713 12.5499 221.75 13.0827 234.035C13.0827 246.304 83.7721 256.653 167.448 256.653C251.119 256.653 321.808 246.305 321.808 234.055C322.801 223.149 321.996 200.585 321.838 196.46L317.609 197.8C317.56 197.819 317.507 197.827 317.454 197.823L45.6697 196.283C45.6247 196.284 45.5798 196.277 45.5365 196.265C37.0591 194.68 28.4742 193.729 19.8548 193.418Z" fill="#7D7D77"/>
<path d="M322.311 195.783L317.459 197.323L45.6752 195.783C44.1291 195.343 14.57 190.504 12.8052 194.463C11.0404 198.423 12.5846 234.055 12.5846 234.055C12.5846 246.813 81.919 257.151 167.449 257.151C252.979 257.151 322.311 246.813 322.311 234.055C323.412 221.958 322.311 195.783 322.311 195.783Z" fill="#B6B3AD"/>
<path d="M167.448 257.649C80.3254 257.649 12.0836 247.286 12.0836 234.055C12.0212 232.619 10.556 198.282 12.346 194.262C12.6976 193.472 13.861 192.417 19.8548 192.417C28.5437 192.72 37.197 193.679 45.7405 195.286L317.38 196.826L322.158 195.311C322.231 195.287 322.309 195.281 322.385 195.292C322.46 195.304 322.533 195.333 322.595 195.377C322.659 195.421 322.711 195.478 322.748 195.545C322.786 195.612 322.807 195.687 322.811 195.763C322.82 196.027 323.9 222.11 322.807 234.102C322.812 247.286 254.566 257.649 167.448 257.649ZM19.8548 193.418C14.4063 193.418 13.4281 194.291 13.2596 194.667C11.9027 197.713 12.5499 221.75 13.0827 234.035C13.0827 246.304 83.7721 256.653 167.448 256.653C251.119 256.653 321.808 246.305 321.808 234.055C322.801 223.149 321.996 200.585 321.838 196.46L317.609 197.8C317.56 197.819 317.507 197.827 317.454 197.823L45.6697 196.283C45.6247 196.284 45.5798 196.277 45.5365 196.265C37.0591 194.68 28.4742 193.729 19.8548 193.418Z" fill="#7D7D77"/>
<g style="mix-blend-mode:multiply" opacity="0.3">
<path d="M322.311 195.783L317.459 197.323L45.6752 195.783C44.1291 195.343 14.57 190.504 12.8052 194.463C11.0404 198.423 12.5846 234.055 12.5846 234.055C12.5846 246.813 81.919 257.151 167.449 257.151C252.979 257.151 322.311 246.813 322.311 234.055C323.412 221.958 322.311 195.783 322.311 195.783ZM234.444 232.15C232.915 240.31 220.873 253.175 154.163 251.959C87.4531 250.748 34.8263 241.667 26.6366 238.296C24.2555 237.253 22.2101 235.573 20.7266 233.443C19.2431 231.312 18.3793 228.815 18.2306 226.225C18.2306 226.225 17.3419 214.902 18.2306 211.495C19.1193 208.088 25.4899 209.756 25.4899 209.756C25.4899 209.756 46.8156 216.813 110.2 222.578C173.584 228.342 235.974 223.991 234.444 232.15Z" fill="#B6B3AD"/>
</g>
<g style="mix-blend-mode:multiply" opacity="0.3">
<path d="M322.311 195.783L317.459 197.323L45.6752 195.783C44.1291 195.343 14.57 190.504 12.8052 194.463C11.0404 198.423 12.5846 234.055 12.5846 234.055C12.5846 246.813 81.919 257.151 167.449 257.151C252.979 257.151 322.311 246.813 322.311 234.055C323.412 221.958 322.311 195.783 322.311 195.783ZM234.444 232.15C232.915 240.31 220.873 253.175 154.163 251.959C87.4531 250.748 34.8263 241.667 26.6366 238.296C24.2555 237.253 22.2101 235.573 20.7266 233.443C19.2431 231.312 18.3793 228.815 18.2306 226.225C18.2306 226.225 17.3419 214.902 18.2306 211.495C19.1193 208.088 25.4899 209.756 25.4899 209.756C25.4899 209.756 46.8156 216.813 110.2 222.578C173.584 228.342 235.974 223.991 234.444 232.15Z" fill="#B6B3AD"/>
</g>
<g style="mix-blend-mode:multiply" opacity="0.3">
<path d="M322.311 195.783L317.459 197.323L177.209 196.53C182.297 201.504 188.194 205.583 194.649 208.592C207.467 215.031 221.827 217.592 235.961 219.214C241.965 219.905 248.006 220.036 254.004 220.717C258.312 221.202 264.346 221.821 267.236 225.535C270.129 229.256 270.591 234.441 271.174 238.971C271.694 242.997 271.844 247.046 271.998 251.094C302.918 246.871 322.311 240.803 322.311 234.055C323.412 221.958 322.311 195.783 322.311 195.783Z" fill="#B6B3AD"/>
</g>
<path d="M283.228 194.356C283.228 203.89 231.39 211.62 167.448 211.62C103.502 211.62 51.6682 203.89 51.6682 194.356C51.6682 184.821 103.502 177.089 167.448 177.089C231.39 177.089 283.228 184.819 283.228 194.356Z" fill="#797975"/>
<path d="M167.448 212.12C110.291 212.12 51.1682 205.474 51.1682 194.356C51.1682 188.09 69.8405 183.989 85.5034 181.653C112.665 178.05 140.048 176.359 167.448 176.59C224.604 176.59 283.727 183.236 283.727 194.356C283.727 200.623 265.055 204.723 249.39 207.058C222.229 210.66 194.847 212.352 167.448 212.12ZM167.448 177.587C140.098 177.355 112.765 179.044 85.6532 182.64C55.4304 187.147 52.1671 192.335 52.1671 194.356C52.1671 196.377 55.4304 201.564 85.6532 206.071C112.765 209.667 140.098 211.355 167.448 211.122C194.797 211.354 222.13 209.667 249.242 206.071C279.465 201.564 282.728 196.377 282.728 194.356C282.728 192.334 279.465 187.147 249.242 182.64C222.13 179.044 194.798 177.355 167.448 177.587Z" fill="#7D7D77"/>
<g style="mix-blend-mode:multiply">
<path d="M167.448 177.089C103.501 177.089 51.6675 184.818 51.6675 194.355C51.6675 203.892 103.501 211.619 167.448 211.619C231.39 211.619 283.228 203.89 283.228 194.355C283.228 184.82 231.39 177.089 167.448 177.089ZM249.896 183.853C253.055 183.719 256.98 184.955 256.17 188.663C255.433 191.333 253.967 193.746 251.935 195.633C251.009 196.575 248.866 198.913 247.288 197.736C246.051 196.516 245.21 194.953 244.876 193.25C244.055 191.231 243.581 189.089 243.473 186.913C243.557 182.804 246.838 183.214 249.896 183.853ZM80.7582 194.562C80.5543 198.816 78.5632 202.063 73.8572 202.004C69.7322 201.954 62.8645 201.169 59.801 197.712C58.9377 197.558 58.1579 197.102 57.602 196.426C57.0461 195.749 56.7506 194.897 56.7686 194.023C56.908 190.749 61.8155 188.952 64.3109 188.101C68.3264 186.454 72.6244 185.6 76.9663 185.586C81.2292 185.964 80.9166 191.246 80.7582 194.562ZM88.6709 202.705C87.968 203.19 87.1518 203.486 86.3008 203.565C85.4498 203.645 84.5927 203.504 83.8119 203.157C81.8971 202.037 81.9387 199.173 82.2031 196.787C81.97 194.255 82.3674 190.454 84.4675 190.728C85.2197 190.921 85.9226 191.27 86.5302 191.753C87.1377 192.236 87.6361 192.841 87.993 193.529C88.9906 194.764 89.7473 196.175 90.2238 197.687C90.5383 198.579 90.5572 199.548 90.2778 200.452C89.9983 201.355 89.4346 202.145 88.6709 202.705ZM92.9915 195.305C90.9748 193.994 84.9207 189.993 86.9997 186.781C87.7379 185.893 88.6548 185.168 89.6911 184.655C90.7275 184.142 91.8603 183.851 93.0165 183.801C94.9856 183.438 96.9744 183.189 98.9727 183.057C102.323 182.499 105.716 182.235 109.112 182.269C114.565 182.531 114.401 186.667 113.753 191.005C113.116 195.297 111.693 199.226 106.919 199.887C102.353 200.523 96.6856 197.708 92.9915 195.305ZM123.949 197.667C121.154 195.946 116.804 193.309 116.542 189.599C116.271 185.712 120.671 184.098 123.801 183.39C129.381 182.04 135.121 181.47 140.858 181.697C141.747 181.714 142.622 181.918 143.426 182.296C144.23 182.674 144.945 183.216 145.525 183.888C151.483 187.75 154.69 198.352 149.448 203.166C143.798 208.358 128.98 200.763 123.949 197.667ZM157.462 196.069C153.754 193.803 151.323 187.594 150.232 183.569C150.021 183.047 150.012 182.465 150.208 181.937C150.404 181.409 150.79 180.973 151.291 180.714C152.95 178.73 157.337 178.585 159.709 178.664C165.975 178.876 187.435 178.043 190.323 181.071C192.808 183.673 189.121 188.229 187.439 190.116C185.702 192.24 183.54 193.981 181.091 195.226C178.334 196.528 174.602 196.272 171.653 196.787C166.907 197.615 161.822 198.735 157.462 196.069ZM197.469 200.534C194.508 197.453 192.632 193.496 192.122 189.259C191.976 187.663 192.23 186.056 192.859 184.582C193.488 183.108 194.474 181.813 195.729 180.811C198.786 178.834 202.807 179.487 206.141 180.265C207.902 180.678 209.677 181.139 211.408 181.668C219.639 184.189 213.704 190.599 210.813 195.249C207.782 200.133 202.903 206.975 197.469 200.534ZM222.372 203.672C219.182 201.746 218.811 198.739 218.205 195.3C217.583 191.77 216.626 186.946 218.948 183.813C220.064 182.306 222.682 182.319 224.913 182.435C230.752 181.601 237.6 183.689 240.185 189.038C242.753 194.346 241.109 201.574 234.836 202.969C231.586 203.693 225.423 205.515 222.372 203.672ZM272.892 198.92C268.844 200.3 264.67 201.283 260.43 201.854C259.167 202.02 256.613 202.464 255.789 200.997C254.391 198.517 255.985 194.832 256.73 192.384C257.284 190.57 257.617 187.084 259.494 185.988C261.488 184.822 266.233 186 268.285 186.652C271.969 187.917 275.457 189.693 278.645 191.927C278.822 192.043 278.951 192.22 279.007 192.425C282.412 195.366 276.516 197.699 272.892 198.92Z" fill="#B6B3AD"/>
</g>
<g style="mix-blend-mode:multiply">
<path d="M47.4144 192.582C44.0929 190.446 39.9014 190.52 36.1344 190.423C34.0581 190.225 31.9717 190.153 29.8866 190.206C28.4407 190.21 27.015 190.543 25.7181 191.181C23.6773 192.027 21.726 193.074 19.8929 194.306C18.188 195.343 17.6618 196.734 18.9396 198.296C19.9452 199.234 21.1851 199.886 22.5297 200.182C24.7003 200.879 26.8133 201.593 28.9585 202.374C32.6609 203.722 36.8733 202.386 40.588 201.701C43.3291 201.195 47.8338 201.207 50.0076 199.083C52.1136 197.02 49.2342 193.747 47.4144 192.582Z" fill="#B6B3AD"/>
</g>
<g style="mix-blend-mode:multiply">
<path d="M316.427 192.581C313.105 190.446 308.914 190.52 305.147 190.423C303.07 190.225 300.983 190.153 298.897 190.205C297.451 190.21 296.026 190.544 294.729 191.181C292.688 192.028 290.737 193.075 288.904 194.306C287.201 195.343 286.675 196.734 287.952 198.296C288.957 199.234 290.197 199.885 291.54 200.182C293.711 200.879 295.824 201.593 297.971 202.374C301.672 203.722 305.884 202.386 309.601 201.701C312.34 201.195 316.847 201.207 319.016 199.082C321.126 197.02 318.244 193.747 316.427 192.581Z" fill="#B6B3AD"/>
</g>
<path d="M337.533 86.5777C337.54 88.0582 336.957 89.4809 335.912 90.5329C334.867 91.5849 333.446 92.18 331.961 92.1873H9.5495C8.81437 92.1837 8.08718 92.0357 7.40943 91.7518C6.73168 91.4679 6.11666 91.0537 5.59949 90.5328C5.08232 90.0119 4.67313 89.3944 4.3953 88.7158C4.11747 88.0372 3.97642 87.3107 3.98024 86.5777C3.97642 85.8448 4.11747 85.1183 4.3953 84.4397C4.67313 83.7611 5.08232 83.1436 5.59949 82.6227C6.11666 82.1018 6.73168 81.6876 7.40943 81.4037C8.08718 81.1198 8.81437 80.9718 9.5495 80.9681H331.961C333.446 80.9755 334.867 81.5706 335.912 82.6226C336.957 83.6746 337.54 85.0973 337.533 86.5777Z" fill="#693219"/>
<g style="mix-blend-mode:multiply" opacity="0.5">
<path d="M4.00305 86.8101C4.05297 88.2466 4.65809 89.6083 5.69183 90.6103C6.72557 91.6122 8.10782 92.1768 9.54948 92.186H331.961C333.403 92.1769 334.785 91.6124 335.819 90.6105C336.853 89.6086 337.459 88.2468 337.509 86.8101H4.00305Z" fill="#813D22"/>
</g>
<g style="mix-blend-mode:screen">
<path d="M5.96558 85.9178C6.25464 84.9634 6.81468 84.1127 7.57806 83.4687C8.34145 82.8247 9.27553 82.4148 10.2675 82.2886H327.605L40.38 83.9383L93.9869 84.9281L5.96558 85.9178Z" fill="#4B290B"/>
</g>
<g style="mix-blend-mode:multiply" opacity="0.5">
<path d="M9.60364 88.2275H330.252C330.252 88.2275 248.851 89.2175 203.848 90.867C158.845 92.5165 40.7108 88.5573 9.60364 88.2275Z" fill="#813D22"/>
</g>
<g style="mix-blend-mode:multiply" opacity="0.8">
<path d="M46.8919 80.9689H19.0063V92.1866H46.8919V80.9689Z" fill="#813D22"/>
</g>
<g style="mix-blend-mode:multiply" opacity="0.8">
<path d="M284.19 80.9689H53.2708V92.1866H284.19V80.9689Z" fill="#813D22"/>
</g>
<g style="mix-blend-mode:multiply" opacity="0.8">
<path d="M318.09 80.9689H289.112V92.1866H318.09V80.9689Z" fill="#813D22"/>
</g>
<g style="mix-blend-mode:multiply" opacity="0.8">
<path d="M331.961 80.9689H325.563V92.1866H331.961C332.149 92.1862 332.336 92.1765 332.523 92.1575C332.608 92.1473 332.689 92.1326 332.777 92.1182C332.872 92.1056 332.969 92.0933 333.064 92.0757C333.185 92.0527 333.298 92.0196 333.414 91.9864C333.472 91.972 333.528 91.9616 333.584 91.9439C333.731 91.8995 333.875 91.8475 334.017 91.7882L334.079 91.7669C335.104 91.3381 335.978 90.6168 336.592 89.6938C337.207 88.7707 337.534 87.6871 337.532 86.5793C337.539 85.0988 336.956 83.6759 335.912 82.6238C334.867 81.5716 333.446 80.9763 331.961 80.9689Z" fill="#813D22"/>
</g>
<path d="M278.004 60.1334C277.969 60.1334 277.934 60.1623 277.896 60.1623V60.1334H61.5163V60.1623C61.4831 60.1623 61.4456 60.1334 61.4083 60.1334C58.7527 60.1334 56.5964 72.5836 56.5964 87.939C56.5964 103.298 58.7527 115.744 61.4083 115.744C61.4449 115.737 61.481 115.728 61.5163 115.716V115.744H277.896V115.716C277.934 115.72 277.969 115.744 278.004 115.744C280.666 115.744 282.821 103.298 282.821 87.939C282.82 72.5836 280.666 60.1334 278.004 60.1334Z" fill="#955328"/>
<g style="mix-blend-mode:screen">
<path d="M69.4978 62.0881H62.2198C62.2198 62.0881 58.469 66.896 58.0283 82.2285H102.147L58.2489 84.9341C57.7617 90.1498 57.9844 95.4072 58.9108 100.563L116.268 99.6629L59.5725 103.269C60.0086 106.754 60.8224 110.182 61.9997 113.492H277.528C279.067 109.332 280.032 104.983 280.396 100.564L235.395 100.266L279.957 98.1621C280.443 91.1481 280.295 84.1046 279.516 77.1169L256.571 77.723L279.295 75.3138L277.089 62.6871L69.4978 62.0881Z" fill="#AD5F31"/>
</g>
<g style="mix-blend-mode:multiply" opacity="0.4">
<path d="M218.604 62.5197L128.691 62.2583C126.891 71.8615 127.289 81.8757 127.451 91.5812C127.491 98.9198 128.093 106.245 129.253 113.492H218.377C219.644 96.4592 221.721 79.3731 218.604 62.5197Z" fill="#AD5F31"/>
</g>
<g style="mix-blend-mode:multiply" opacity="0.4">
<path d="M235.395 100.265L279.956 98.1612C280.442 91.1472 280.295 84.1038 279.515 77.1161L256.57 77.7221L279.295 75.3129L277.088 62.6863L252.31 62.6157C252.822 62.8356 253.333 63.0515 253.836 63.2901C257.809 65.1812 261.588 69.1377 256.46 72.5925C249.263 77.4357 239.779 74.1696 231.815 76.1865C234.161 77.1402 236.618 77.7996 239.128 78.1496C242.238 78.7206 245.284 79.5949 248.223 80.76C250.404 81.7476 252.206 83.551 249.987 85.6197C246.991 88.4169 240.926 88.4169 237.105 88.7386C221.03 90.0936 204.959 92.1458 188.828 92.735C169.723 93.4343 150.609 92.9862 131.51 92.3243C123.851 92.0606 116.207 92.2605 108.555 92.044C102.449 91.8676 95.8786 91.3883 90.5569 88.1015C90.4703 88.0495 90.3986 87.9761 90.3488 87.8882C90.299 87.8004 90.2729 87.7013 90.2729 87.6004C90.2729 87.4996 90.299 87.4004 90.3488 87.3126C90.3986 87.2248 90.4703 87.1513 90.5569 87.0993C105.387 80.0172 122.119 79.5896 138.045 76.556C127.161 74.5306 116.014 74.8005 104.988 74.2361C93.1075 73.6077 81.3047 71.9468 69.7139 69.2725C69.1021 69.1314 69.2208 68.3471 69.7139 68.1541C78.4242 65.1001 87.4681 63.0905 96.6547 62.1676L69.4976 62.0887H62.2196C62.2196 62.0887 58.4688 66.8966 58.0281 82.2291H102.147L58.2489 84.9341C57.7617 90.1498 57.9844 95.4072 58.9108 100.563L116.268 99.6629L59.5725 103.269C60.0086 106.754 60.8224 110.182 61.9997 113.492H277.528C279.067 109.332 280.032 104.983 280.396 100.564L235.395 100.265Z" fill="#AD5F31"/>
</g>
<g style="mix-blend-mode:multiply" opacity="0.4">
<path d="M280.063 96.3595C277.278 97.1729 274.469 97.9047 271.636 98.5549L279.957 98.1605C279.957 98.1605 280.004 97.4918 280.063 96.3595Z" fill="#AD5F31"/>
</g>
<g style="mix-blend-mode:multiply" opacity="0.4">
<path d="M72.0138 99.9701C67.4104 99.3154 62.8533 98.3708 58.3697 97.1417C58.5029 98.2768 58.6777 99.4264 58.9108 100.563L74.3489 100.322C73.5716 100.203 72.7923 100.09 72.0138 99.9701Z" fill="#AD5F31"/>
</g>
<g style="mix-blend-mode:multiply" opacity="0.4">
<path d="M256.448 101.439C220.968 106.892 184.603 107.996 148.755 107.21C130.976 107.044 113.223 105.799 95.5955 103.481C91.6266 102.908 87.6579 102.327 83.6891 101.736L59.5725 103.269C60.0086 106.754 60.8224 110.182 61.9996 113.492H277.528C279.067 109.332 280.032 104.983 280.396 100.564L262.402 100.446C260.419 100.8 258.434 101.131 256.448 101.439Z" fill="#AD5F31"/>
</g>
<path d="M133.546 211.058C134.969 211.087 136.393 211.093 137.808 211.101V59.9632C137.814 59.4651 137.71 58.9718 137.505 58.5177C137.299 58.0636 136.997 57.6597 136.619 57.3341C136.241 57.0085 135.796 56.7691 135.316 56.6325C134.835 56.496 134.331 56.4656 133.837 56.5435C131.855 56.7428 130.678 56.9916 129.864 59.5378V210.715C131.09 210.844 132.317 210.958 133.546 211.058Z" fill="#C38E60"/>
<path d="M133.627 211.065C134.584 211.082 135.543 211.09 136.496 211.094V59.2504C136.233 58.8007 135.866 58.4201 135.425 58.14C134.985 57.8599 134.484 57.6885 133.964 57.6398C133.444 57.5912 132.92 57.6667 132.435 57.8602C131.95 58.0537 131.518 58.3596 131.175 58.7525V210.844C131.993 210.923 132.809 210.998 133.627 211.065Z" fill="#FAC57B"/>
<path d="M130.071 65.0703L130.973 64.673L137.605 67.3078L136.701 67.703L130.071 65.0703Z" fill="#C38E60"/>
<path d="M130.071 75.8453L130.973 75.448L137.605 78.0828L136.701 78.478L130.071 75.8453Z" fill="#C38E60"/>
<path d="M130.071 108.171L130.973 107.773L137.605 110.408L136.701 110.803L130.071 108.171Z" fill="#C38E60"/>
<path d="M130.071 118.944L130.973 118.551L137.605 121.183L136.701 121.581L130.071 118.944Z" fill="#C38E60"/>
<path d="M130.071 151.269L130.973 150.874L137.605 153.506L136.701 153.904L130.071 151.269Z" fill="#C38E60"/>
<path d="M130.071 162.046L130.973 161.649L137.605 164.284L136.701 164.679L130.071 162.046Z" fill="#C38E60"/>
<path d="M130.071 194.371L130.973 193.974L137.605 196.609L136.701 197.004L130.071 194.371Z" fill="#C38E60"/>
<path d="M130.071 205.147L130.973 204.747L137.605 207.382L136.701 207.781L130.071 205.147Z" fill="#C38E60"/>
<path d="M130.071 86.6184L130.973 86.2253L137.605 88.8559L136.701 89.2554L130.071 86.6184Z" fill="#C38E60"/>
<path d="M130.071 97.3956L130.973 96.9983L137.605 99.6331L136.701 100.03L130.071 97.3956Z" fill="#C38E60"/>
<path d="M130.071 129.723L130.973 129.324L137.605 131.958L136.701 132.354L130.071 129.723Z" fill="#C38E60"/>
<path d="M130.071 140.496L130.973 140.097L137.605 142.733L136.701 143.131L130.071 140.496Z" fill="#C38E60"/>
<path d="M130.071 172.821L130.973 172.424L137.605 175.059L136.701 175.454L130.071 172.821Z" fill="#C38E60"/>
<path d="M130.071 183.594L130.973 183.201L137.605 185.834L136.701 186.229L130.071 183.594Z" fill="#C38E60"/>
<path d="M130.071 59.6838L130.973 59.2865L137.605 61.9192L136.701 62.3165L130.071 59.6838Z" fill="#C38E60"/>
<path d="M130.071 70.4589L130.973 70.0594L137.605 72.6964L136.701 73.0916L130.071 70.4589Z" fill="#C38E60"/>
<path d="M130.071 102.784L130.973 102.385L137.605 105.022L136.701 105.417L130.071 102.784Z" fill="#C38E60"/>
<path d="M130.071 113.557L130.973 113.162L137.605 115.795L136.701 116.192L130.071 113.557Z" fill="#C38E60"/>
<path d="M130.071 145.883L130.973 145.487L137.605 148.12L136.701 148.517L130.071 145.883Z" fill="#C38E60"/>
<path d="M130.071 156.658L130.973 156.262L137.605 158.895L136.701 159.292L130.071 156.658Z" fill="#C38E60"/>
<path d="M130.071 188.983L130.973 188.588L137.605 191.22L136.701 191.618L130.071 188.983Z" fill="#C38E60"/>
<path d="M130.071 199.76L130.973 199.361L137.605 201.995L136.701 202.393L130.071 199.76Z" fill="#C38E60"/>
<path d="M130.071 81.2319L130.973 80.8367L137.605 83.4694L136.701 83.8688L130.071 81.2319Z" fill="#C38E60"/>
<path d="M130.071 92.007L130.973 91.6118L137.605 94.2445L136.701 94.6419L130.071 92.007Z" fill="#C38E60"/>
<path d="M130.071 124.332L130.973 123.937L137.605 126.57L136.701 126.967L130.071 124.332Z" fill="#C38E60"/>
<path d="M130.071 135.107L130.973 134.71L137.605 137.345L136.701 137.742L130.071 135.107Z" fill="#C38E60"/>
<path d="M130.071 167.435L130.973 167.035L137.605 169.67L136.701 170.067L130.071 167.435Z" fill="#C38E60"/>
<path d="M130.071 178.208L130.973 177.808L137.605 180.445L136.701 180.843L130.071 178.208Z" fill="#C38E60"/>
<path d="M133.222 211.031L130.974 210.136L130.071 210.533L130.749 210.803C131.574 210.883 132.398 210.959 133.222 211.031Z" fill="#C38E60"/>
<path d="M143.361 118.743C145.25 118.679 146.838 118.55 147.151 115.365L145.662 59.9361C145.653 59.438 145.534 58.948 145.315 58.5003C145.095 58.0527 144.781 57.6581 144.393 57.3442C144.005 57.0303 143.553 56.8045 143.068 56.6826C142.584 56.5608 142.078 56.5458 141.587 56.6387C139.612 56.896 138.445 57.1825 137.709 59.7514L139.875 116.618C140.206 118.504 141.787 118.797 143.361 118.743Z" fill="#C38E60"/>
<path d="M143.265 117.932C144.29 117.927 145.285 117.589 146.099 116.969L144.331 59.2598C144.053 58.8186 143.674 58.4496 143.225 58.1833C142.777 57.917 142.271 57.7611 141.749 57.7285C141.228 57.6959 140.707 57.7874 140.228 57.9956C139.749 58.2038 139.327 58.5226 138.997 58.9257L140.788 117.365C141.548 117.772 142.403 117.968 143.265 117.932Z" fill="#FAC57B"/>
<path d="M138.082 65.2764L138.973 64.8514L145.684 67.2844L144.793 67.7072L138.082 65.2764Z" fill="#C38E60"/>
<path d="M138.414 76.0452L139.305 75.6223L146.012 78.0531L145.121 78.476L138.414 76.0452Z" fill="#C38E60"/>
<path d="M146.632 110.229L140.295 107.932L140.035 108.055C140.047 108.233 140.047 108.411 140.054 108.592L146.112 110.785L146.641 110.536C146.636 110.432 146.632 110.331 146.632 110.229Z" fill="#C38E60"/>
<path d="M138.745 86.8138L139.636 86.391L146.342 88.8218L145.449 89.2468L138.745 86.8138Z" fill="#C38E60"/>
<path d="M139.073 97.5869L139.964 97.1598L146.675 99.5927L145.784 100.016L139.073 97.5869Z" fill="#C38E60"/>
<path d="M137.918 59.8921L138.809 59.465L145.518 61.8979L144.627 62.3229L137.918 59.8921Z" fill="#C38E60"/>
<path d="M138.248 70.6608L139.139 70.2358L145.85 72.6667L144.957 73.0916L138.248 70.6608Z" fill="#C38E60"/>
<path d="M146.528 104.865L140.235 102.585C140.252 102.838 140.268 103.091 140.268 103.344L145.945 105.402L146.526 105.126C146.526 105.039 146.528 104.952 146.528 104.865Z" fill="#C38E60"/>
<path d="M146.682 115.57L140.459 113.318L140.135 113.473C140.139 113.633 140.145 113.795 140.151 113.953L146.278 116.173L146.674 115.984C146.68 115.844 146.678 115.707 146.682 115.57Z" fill="#C38E60"/>
<path d="M138.579 81.4295L139.469 81.0088L146.178 83.4354L145.287 83.8625L138.579 81.4295Z" fill="#C38E60"/>
<path d="M138.907 92.2003L139.8 91.7775L146.506 94.2083L145.616 94.6333L138.907 92.2003Z" fill="#C38E60"/>
<g style="mix-blend-mode:screen" opacity="0.3">
<path d="M142.229 105.506C142.876 105.491 143.492 105.223 143.944 104.759L142.874 59.8864C142.066 58.4627 140.505 58.216 139.648 59.6271L140.73 105.066C141.166 105.376 141.694 105.531 142.229 105.506Z" fill="#FAC57B"/>
</g>
<path d="M152.197 118.743C154.089 118.679 155.677 118.55 155.989 115.365L154.501 59.9361C154.491 59.438 154.373 58.948 154.153 58.5003C153.934 58.0527 153.62 57.6581 153.232 57.3442C152.844 57.0303 152.392 56.8045 151.907 56.6826C151.423 56.5608 150.917 56.5458 150.426 56.6387C148.451 56.896 147.284 57.1825 146.548 59.7514L148.714 116.618C149.042 118.504 150.624 118.797 152.197 118.743Z" fill="#C38E60"/>
<path d="M152.102 117.932C153.127 117.928 154.122 117.59 154.936 116.969L153.167 59.2598C152.89 58.8186 152.511 58.4497 152.063 58.1834C151.614 57.9172 151.108 57.7613 150.587 57.7286C150.066 57.696 149.545 57.7875 149.066 57.9957C148.588 58.2039 148.166 58.5227 147.835 58.9258L149.625 117.365C150.385 117.771 151.24 117.967 152.102 117.932Z" fill="#FAC57B"/>
<path d="M146.922 65.2764L147.813 64.8514L154.524 67.2844L153.629 67.7072L146.922 65.2764Z" fill="#C38E60"/>
<path d="M147.252 76.0452L148.143 75.6223L154.85 78.0531L153.961 78.476L147.252 76.0452Z" fill="#C38E60"/>
<path d="M155.471 110.229L149.133 107.932L148.875 108.055C148.884 108.233 148.884 108.411 148.892 108.592L154.948 110.785L155.479 110.536C155.477 110.432 155.473 110.331 155.471 110.229Z" fill="#C38E60"/>
<path d="M147.58 86.8138L148.471 86.391L155.182 88.8218L154.291 89.2468L147.58 86.8138Z" fill="#C38E60"/>
<path d="M147.911 97.5869L148.804 97.1598L155.512 99.5927L154.62 100.016L147.911 97.5869Z" fill="#C38E60"/>
<path d="M146.758 59.8921L147.649 59.465L154.357 61.8979L153.465 62.3229L146.758 59.8921Z" fill="#C38E60"/>
<path d="M147.086 70.6608L147.977 70.2358L154.686 72.6667L153.795 73.0916L147.086 70.6608Z" fill="#C38E60"/>
<path d="M155.364 104.865L149.071 102.585C149.087 102.838 149.104 103.091 149.104 103.344L154.786 105.402L155.364 105.126V104.865Z" fill="#C38E60"/>
<path d="M155.519 115.57L149.298 113.318L148.974 113.473C148.98 113.633 148.984 113.795 148.988 113.953L155.115 116.173L155.515 115.984C155.519 115.844 155.517 115.707 155.519 115.57Z" fill="#C38E60"/>
<path d="M147.416 81.4295L148.307 81.0088L155.018 83.4354L154.125 83.8625L147.416 81.4295Z" fill="#C38E60"/>
<path d="M147.747 92.2003L148.638 91.7775L155.346 94.2083L154.455 94.6333L147.747 92.2003Z" fill="#C38E60"/>
<g style="mix-blend-mode:screen" opacity="0.3">
<path d="M151.069 105.506C151.717 105.489 152.332 105.221 152.784 104.759L151.715 59.8864C150.903 58.4627 149.342 58.216 148.484 59.6271L149.571 105.066C150.007 105.377 150.535 105.532 151.069 105.506Z" fill="#FAC57B"/>
</g>
<path d="M161.034 118.743C162.928 118.679 164.514 118.55 164.826 115.365L163.34 59.9361C163.33 59.4381 163.211 58.9483 162.992 58.5008C162.772 58.0533 162.458 57.6588 162.07 57.3449C161.682 57.031 161.23 56.8052 160.745 56.6833C160.261 56.5613 159.756 56.5461 159.265 56.6387C157.288 56.896 156.122 57.1825 155.386 59.7514L157.551 116.618C157.881 118.504 159.461 118.797 161.034 118.743Z" fill="#C38E60"/>
<path d="M160.94 117.932C161.965 117.928 162.96 117.59 163.773 116.969L162.006 59.2597C161.729 58.8186 161.35 58.4497 160.901 58.1834C160.452 57.9172 159.946 57.7613 159.425 57.7286C158.904 57.696 158.382 57.7875 157.903 57.9957C157.425 58.2038 157.003 58.5227 156.672 58.9257L158.464 117.365C159.223 117.772 160.079 117.968 160.94 117.932Z" fill="#FAC57B"/>
<path d="M155.758 65.2764L156.651 64.8514L163.361 67.2844L162.468 67.7072L155.758 65.2764Z" fill="#C38E60"/>
<path d="M156.09 76.0452L156.981 75.6223L163.69 78.0531L162.799 78.476L156.09 76.0452Z" fill="#C38E60"/>
<path d="M164.308 110.229L157.971 107.932L157.712 108.055C157.721 108.233 157.721 108.411 157.729 108.592L163.787 110.785L164.318 110.536C164.315 110.432 164.31 110.331 164.308 110.229Z" fill="#C38E60"/>
<path d="M156.418 86.8138L157.311 86.391L164.018 88.8218L163.127 89.2468L156.418 86.8138Z" fill="#C38E60"/>
<path d="M156.749 97.5869L157.641 97.1598L164.35 99.5927L163.457 100.016L156.749 97.5869Z" fill="#C38E60"/>
<path d="M155.594 59.8921L156.484 59.465L163.195 61.8979L162.304 62.3229L155.594 59.8921Z" fill="#C38E60"/>
<path d="M155.924 70.6608L156.815 70.2358L163.523 72.6667L162.633 73.0916L155.924 70.6608Z" fill="#C38E60"/>
<path d="M164.204 104.865L157.91 102.585C157.927 102.838 157.944 103.091 157.944 103.344L163.623 105.402L164.202 105.126C164.202 105.039 164.204 104.952 164.204 104.865Z" fill="#C38E60"/>
<path d="M164.358 115.57L158.137 113.318L157.812 113.473C157.816 113.633 157.821 113.795 157.827 113.953L163.952 116.173L164.351 115.984C164.356 115.844 164.356 115.707 164.358 115.57Z" fill="#C38E60"/>
<path d="M156.254 81.4295L157.147 81.0088L163.856 83.4354L162.961 83.8625L156.254 81.4295Z" fill="#C38E60"/>
<path d="M156.584 92.2003L157.475 91.7775L164.184 94.2083L163.293 94.6333L156.584 92.2003Z" fill="#C38E60"/>
<g style="mix-blend-mode:screen" opacity="0.3">
<path d="M159.906 105.506C160.553 105.489 161.169 105.221 161.621 104.759L160.551 59.8864C159.741 58.4627 158.179 58.216 157.321 59.6271L158.408 105.066C158.843 105.377 159.371 105.532 159.906 105.506Z" fill="#FAC57B"/>
</g>
<path d="M169.875 118.743C171.765 118.679 173.353 118.55 173.667 115.365L172.177 59.9361C172.167 59.438 172.048 58.948 171.829 58.5003C171.61 58.0527 171.295 57.6581 170.907 57.3442C170.519 57.0303 170.067 56.8045 169.582 56.6826C169.098 56.5608 168.593 56.5458 168.102 56.6387C166.127 56.896 164.959 57.1825 164.223 59.7514L166.387 116.618C166.72 118.504 168.3 118.797 169.875 118.743Z" fill="#C38E60"/>
<path d="M169.779 117.932C170.803 117.928 171.798 117.589 172.612 116.969L170.845 59.2598C170.567 58.8186 170.188 58.4496 169.74 58.1833C169.291 57.917 168.785 57.7611 168.264 57.7285C167.742 57.6959 167.221 57.7874 166.742 57.9956C166.263 58.2038 165.841 58.5226 165.511 58.9257L167.303 117.365C168.062 117.772 168.918 117.968 169.779 117.932Z" fill="#FAC57B"/>
<path d="M164.597 65.2764L165.488 64.8514L172.197 67.2844L171.306 67.7072L164.597 65.2764Z" fill="#C38E60"/>
<path d="M164.928 76.0452L165.821 75.6223L172.525 78.0531L171.634 78.476L164.928 76.0452Z" fill="#C38E60"/>
<path d="M173.147 110.229L166.809 107.932L166.549 108.055C166.562 108.233 166.562 108.411 166.57 108.592L172.627 110.785L173.155 110.536C173.153 110.432 173.149 110.331 173.147 110.229Z" fill="#C38E60"/>
<path d="M165.258 86.8138L166.149 86.391L172.858 88.8218L171.967 89.2468L165.258 86.8138Z" fill="#C38E60"/>
<path d="M165.588 97.5869L166.479 97.1598L173.188 99.5927L172.297 100.016L165.588 97.5869Z" fill="#C38E60"/>
<path d="M164.433 59.8921L165.326 59.465L172.033 61.8979L171.14 62.3229L164.433 59.8921Z" fill="#C38E60"/>
<path d="M164.764 70.6608L165.655 70.2358L172.361 72.6667L171.47 73.0916L164.764 70.6608Z" fill="#C38E60"/>
<path d="M173.042 104.865L166.749 102.585C166.766 102.838 166.78 103.091 166.78 103.344L172.462 105.402L173.04 105.126C173.04 105.039 173.042 104.952 173.042 104.865Z" fill="#C38E60"/>
<path d="M173.196 115.57L166.973 113.318L166.649 113.473C166.653 113.633 166.659 113.795 166.666 113.953L172.793 116.173L173.188 115.984C173.192 115.844 173.192 115.707 173.196 115.57Z" fill="#C38E60"/>
<path d="M165.092 81.4295L165.983 81.0088L172.694 83.4354L171.803 83.8625L165.092 81.4295Z" fill="#C38E60"/>
<path d="M165.42 92.2003L166.313 91.7775L173.022 94.2083L172.131 94.6333L165.42 92.2003Z" fill="#C38E60"/>
<g style="mix-blend-mode:screen" opacity="0.3">
<path d="M168.743 105.506C169.39 105.491 170.006 105.223 170.458 104.759L169.388 59.8864C168.58 58.4627 167.02 58.216 166.162 59.6271L167.244 105.066C167.68 105.376 168.208 105.531 168.743 105.506Z" fill="#FAC57B"/>
</g>
<path d="M179.315 118.743C181.207 118.679 182.795 118.55 183.107 115.365L181.619 59.9361C181.609 59.438 181.49 58.948 181.271 58.5003C181.052 58.0527 180.737 57.6581 180.349 57.3442C179.961 57.0303 179.509 56.8045 179.025 56.6826C178.54 56.5608 178.035 56.5458 177.544 56.6387C175.569 56.896 174.399 57.1825 173.667 59.7514L175.831 116.618C176.16 118.504 177.741 118.797 179.315 118.743Z" fill="#C38E60"/>
<path d="M179.221 117.932C180.246 117.928 181.24 117.589 182.054 116.969L180.285 59.2598C180.008 58.8187 179.629 58.4497 179.181 58.1834C178.732 57.9172 178.226 57.7613 177.705 57.7286C177.184 57.696 176.663 57.7875 176.184 57.9957C175.706 58.2039 175.284 58.5227 174.953 58.9258L176.743 117.365C177.504 117.772 178.359 117.967 179.221 117.932Z" fill="#FAC57B"/>
<path d="M174.038 65.2764L174.929 64.8514L181.64 67.2844L180.747 67.7072L174.038 65.2764Z" fill="#C38E60"/>
<path d="M174.371 76.0452L175.262 75.6223L181.97 78.0531L181.077 78.476L174.371 76.0452Z" fill="#C38E60"/>
<path d="M182.587 110.229L176.252 107.932L175.993 108.055C176.002 108.233 176.002 108.411 176.01 108.592L182.068 110.785L182.597 110.536C182.595 110.432 182.591 110.331 182.587 110.229Z" fill="#C38E60"/>
<path d="M174.699 86.8138L175.59 86.391L182.299 88.8218L181.408 89.2468L174.699 86.8138Z" fill="#C38E60"/>
<path d="M175.027 97.5869L175.92 97.1598L182.629 99.5927L181.738 100.016L175.027 97.5869Z" fill="#C38E60"/>
<path d="M173.874 59.8921L174.765 59.465L181.476 61.8979L180.583 62.3229L173.874 59.8921Z" fill="#C38E60"/>
<path d="M174.205 70.6608L175.095 70.2358L181.804 72.6667L180.913 73.0916L174.205 70.6608Z" fill="#C38E60"/>
<path d="M182.485 104.865L176.189 102.585C176.206 102.838 176.223 103.091 176.223 103.344L181.904 105.402L182.483 105.126C182.483 105.039 182.485 104.952 182.485 104.865Z" fill="#C38E60"/>
<path d="M182.639 115.57L176.416 113.318L176.091 113.473C176.095 113.633 176.102 113.795 176.106 113.953L182.233 116.173L182.632 115.984C182.637 115.844 182.634 115.707 182.639 115.57Z" fill="#C38E60"/>
<path d="M174.533 81.4295L175.426 81.0088L182.132 83.4354L181.242 83.8625L174.533 81.4295Z" fill="#C38E60"/>
<path d="M174.865 92.2003L175.756 91.7775L182.465 94.2083L181.574 94.6333L174.865 92.2003Z" fill="#C38E60"/>
<g style="mix-blend-mode:screen" opacity="0.3">
<path d="M178.187 105.506C178.834 105.49 179.449 105.222 179.9 104.759L178.83 59.8864C178.02 58.4627 176.46 58.216 175.602 59.6271L176.686 105.066C177.123 105.377 177.651 105.532 178.187 105.506Z" fill="#FAC57B"/>
</g>
<path d="M188.154 118.743C190.046 118.679 191.631 118.55 191.944 115.365L190.458 59.9361C190.447 59.4381 190.329 58.9483 190.109 58.5008C189.89 58.0533 189.575 57.6588 189.187 57.3449C188.799 57.031 188.347 56.8052 187.863 56.6833C187.379 56.5613 186.874 56.5461 186.383 56.6387C184.406 56.896 183.24 57.1825 182.504 59.7514L184.668 116.618C184.999 118.504 186.58 118.797 188.154 118.743Z" fill="#C38E60"/>
<path d="M188.06 117.932C189.084 117.928 190.079 117.589 190.893 116.969L189.126 59.2597C188.848 58.8186 188.469 58.4497 188.021 58.1834C187.572 57.9172 187.066 57.7613 186.545 57.7286C186.023 57.696 185.502 57.7875 185.023 57.9957C184.544 58.2038 184.122 58.5227 183.792 58.9257L185.584 117.365C186.343 117.772 187.199 117.968 188.06 117.932Z" fill="#FAC57B"/>
<path d="M182.878 65.2764L183.769 64.8514L190.478 67.2844L189.587 67.7072L182.878 65.2764Z" fill="#C38E60"/>
<path d="M183.206 76.0452L184.097 75.6223L190.808 78.0531L189.917 78.476L183.206 76.0452Z" fill="#C38E60"/>
<path d="M191.427 110.229L185.088 107.932L184.83 108.055C184.841 108.233 184.841 108.411 184.847 108.592L190.907 110.785L191.436 110.536C191.432 110.432 191.43 110.331 191.427 110.229Z" fill="#C38E60"/>
<path d="M183.537 86.8138L184.43 86.391L191.139 88.8218L190.246 89.2468L183.537 86.8138Z" fill="#C38E60"/>
<path d="M183.869 97.5869L184.76 97.1598L191.469 99.5927L190.578 100.016L183.869 97.5869Z" fill="#C38E60"/>
<path d="M182.712 59.8921L183.603 59.465L190.312 61.8979L189.421 62.3229L182.712 59.8921Z" fill="#C38E60"/>
<path d="M183.044 70.6608L183.935 70.2358L190.642 72.6667L189.749 73.0916L183.044 70.6608Z" fill="#C38E60"/>
<path d="M191.321 104.865L185.03 102.585C185.045 102.838 185.061 103.091 185.061 103.344L190.741 105.402L191.321 105.126V104.865Z" fill="#C38E60"/>
<path d="M191.478 115.57L185.255 113.318L184.93 113.473C184.934 113.633 184.938 113.795 184.945 113.953L191.072 116.173L191.469 115.984C191.473 115.844 191.473 115.707 191.478 115.57Z" fill="#C38E60"/>
<path d="M183.373 81.4295L184.263 81.0088L190.974 83.4354L190.084 83.8625L183.373 81.4295Z" fill="#C38E60"/>
<path d="M183.703 92.2003L184.594 91.7775L191.303 94.2083L190.412 94.6333L183.703 92.2003Z" fill="#C38E60"/>
<g style="mix-blend-mode:screen" opacity="0.3">
<path d="M187.024 105.506C187.671 105.491 188.287 105.223 188.739 104.759L187.669 59.8864C186.861 58.4627 185.298 58.216 184.443 59.6271L185.525 105.066C185.961 105.376 186.489 105.531 187.024 105.506Z" fill="#FAC57B"/>
</g>
<path d="M196.991 118.743C198.882 118.679 200.47 118.55 200.782 115.365L199.294 59.9361C199.284 59.438 199.166 58.948 198.946 58.5003C198.727 58.0527 198.413 57.6581 198.025 57.3442C197.637 57.0303 197.185 56.8045 196.7 56.6826C196.216 56.5608 195.71 56.5458 195.219 56.6387C193.244 56.896 192.077 57.1825 191.341 59.7514L193.507 116.618C193.838 118.504 195.419 118.797 196.991 118.743Z" fill="#C38E60"/>
<path d="M196.897 117.932C197.922 117.927 198.917 117.589 199.731 116.969L197.962 59.2598C197.685 58.8186 197.306 58.4496 196.857 58.1833C196.408 57.917 195.903 57.7611 195.381 57.7285C194.86 57.6959 194.339 57.7874 193.86 57.9956C193.381 58.2038 192.959 58.5226 192.628 58.9257L194.42 117.365C195.18 117.772 196.035 117.968 196.897 117.932Z" fill="#FAC57B"/>
<path d="M191.714 65.2764L192.605 64.8514L199.316 67.2844L198.425 67.7072L191.714 65.2764Z" fill="#C38E60"/>
<path d="M192.046 76.0452L192.937 75.6223L199.644 78.0531L198.753 78.476L192.046 76.0452Z" fill="#C38E60"/>
<path d="M200.264 110.229L193.927 107.932L193.667 108.055C193.679 108.233 193.679 108.411 193.686 108.592L199.744 110.785L200.273 110.536C200.268 110.432 200.267 110.331 200.264 110.229Z" fill="#C38E60"/>
<path d="M192.377 86.8138L193.268 86.391L199.976 88.8218L199.081 89.2468L192.377 86.8138Z" fill="#C38E60"/>
<path d="M192.705 97.5869L193.596 97.1598L200.307 99.5927L199.416 100.016L192.705 97.5869Z" fill="#C38E60"/>
<path d="M191.55 59.8921L192.441 59.465L199.149 61.8979L198.259 62.3229L191.55 59.8921Z" fill="#C38E60"/>
<path d="M191.88 70.6608L192.771 70.2358L199.482 72.6667L198.587 73.0916L191.88 70.6608Z" fill="#C38E60"/>
<path d="M200.16 104.865L193.867 102.585C193.884 102.838 193.9 103.091 193.9 103.344L199.578 105.402L200.16 105.126V104.865Z" fill="#C38E60"/>
<path d="M200.314 115.57L194.091 113.318L193.767 113.473C193.771 113.633 193.777 113.795 193.783 113.953L199.91 116.173L200.308 115.984C200.31 115.844 200.31 115.707 200.314 115.57Z" fill="#C38E60"/>
<path d="M192.21 81.4295L193.101 81.0088L199.81 83.4354L198.919 83.8625L192.21 81.4295Z" fill="#C38E60"/>
<path d="M192.541 92.2003L193.432 91.7775L200.138 94.2083L199.247 94.6333L192.541 92.2003Z" fill="#C38E60"/>
<g style="mix-blend-mode:screen" opacity="0.3">
<path d="M195.86 105.506C196.508 105.491 197.124 105.223 197.575 104.759L196.506 59.8864C195.698 58.4627 194.137 58.216 193.28 59.6271L194.362 105.066C194.798 105.376 195.326 105.531 195.86 105.506Z" fill="#FAC57B"/>
</g>
<path d="M205.829 118.743C207.721 118.679 209.309 118.55 209.621 115.365L208.133 59.9361C208.123 59.438 208.005 58.948 207.785 58.5003C207.566 58.0527 207.251 57.6581 206.863 57.3442C206.475 57.0303 206.023 56.8045 205.539 56.6826C205.054 56.5608 204.549 56.5458 204.058 56.6387C202.083 56.896 200.916 57.1825 200.18 59.7514L202.346 116.618C202.675 118.504 204.256 118.797 205.829 118.743Z" fill="#C38E60"/>
<path d="M205.733 117.932C206.758 117.928 207.754 117.59 208.568 116.969L206.799 59.2598C206.522 58.8187 206.143 58.4497 205.695 58.1834C205.246 57.9172 204.74 57.7613 204.219 57.7286C203.698 57.696 203.177 57.7875 202.698 57.9957C202.22 58.2039 201.798 58.5227 201.467 58.9258L203.257 117.365C204.017 117.771 204.872 117.967 205.733 117.932Z" fill="#FAC57B"/>
<path d="M200.552 65.2764L201.447 64.8514L208.156 67.2844L207.26 67.7072L200.552 65.2764Z" fill="#C38E60"/>
<path d="M200.884 76.0452L201.775 75.6223L208.484 78.0531L207.593 78.476L200.884 76.0452Z" fill="#C38E60"/>
<path d="M209.101 110.229L202.766 107.932L202.508 108.055C202.516 108.233 202.516 108.411 202.524 108.592L208.583 110.785L209.111 110.536C209.109 110.432 209.105 110.331 209.101 110.229Z" fill="#C38E60"/>
<path d="M201.212 86.8138L202.103 86.391L208.814 88.8218L207.923 89.2468L201.212 86.8138Z" fill="#C38E60"/>
<path d="M201.543 97.5869L202.436 97.1598L209.144 99.5927L208.251 100.016L201.543 97.5869Z" fill="#C38E60"/>
<path d="M200.39 59.8921L201.281 59.465L207.989 61.8979L207.096 62.3229L200.39 59.8921Z" fill="#C38E60"/>
<path d="M200.718 70.6608L201.609 70.2358L208.317 72.6667L207.427 73.0916L200.718 70.6608Z" fill="#C38E60"/>
<path d="M208.997 104.865L202.705 102.585C202.72 102.838 202.737 103.091 202.737 103.344L208.418 105.402L208.997 105.126V104.865Z" fill="#C38E60"/>
<path d="M209.151 115.57L202.93 113.318L202.605 113.473C202.61 113.633 202.616 113.795 202.62 113.953L208.747 116.173L209.147 115.984C209.151 115.844 209.149 115.707 209.151 115.57Z" fill="#C38E60"/>
<path d="M201.046 81.4295L201.939 81.0088L208.65 83.4354L207.757 83.8625L201.046 81.4295Z" fill="#C38E60"/>
<path d="M201.379 92.2003L202.269 91.7775L208.978 94.2083L208.087 94.6333L201.379 92.2003Z" fill="#C38E60"/>
<g style="mix-blend-mode:screen" opacity="0.3">
<path d="M204.701 105.506C205.349 105.489 205.964 105.221 206.416 104.759L205.344 59.8864C204.535 58.4627 202.974 58.216 202.116 59.6271L203.203 105.066C203.639 105.377 204.166 105.532 204.701 105.506Z" fill="#FAC57B"/>
</g>
<path d="M215.272 118.743C217.163 118.679 218.749 118.55 219.064 115.365L217.576 59.9361C217.565 59.4381 217.446 58.9482 217.227 58.5007C217.008 58.0532 216.693 57.6588 216.305 57.3449C215.917 57.031 215.465 56.8052 214.981 56.6833C214.497 56.5613 213.991 56.5461 213.5 56.6387C211.526 56.896 210.358 57.1825 209.622 59.7514L211.786 116.618C212.119 118.504 213.698 118.797 215.272 118.743Z" fill="#C38E60"/>
<path d="M215.178 117.932C216.202 117.927 217.197 117.589 218.011 116.969L216.242 59.2598C215.964 58.8186 215.585 58.4496 215.137 58.1833C214.688 57.917 214.182 57.7611 213.661 57.7285C213.139 57.6959 212.618 57.7874 212.139 57.9956C211.66 58.2038 211.238 58.5226 210.907 58.9257L212.7 117.365C213.46 117.772 214.316 117.968 215.178 117.932Z" fill="#FAC57B"/>
<path d="M209.995 65.2764L210.885 64.8514L217.596 67.2844L216.703 67.7072L209.995 65.2764Z" fill="#C38E60"/>
<path d="M210.325 76.0452L211.216 75.6223L217.925 78.0531L217.034 78.476L210.325 76.0452Z" fill="#C38E60"/>
<path d="M218.543 110.229L212.206 107.932L211.948 108.055C211.958 108.233 211.958 108.411 211.967 108.592L218.025 110.785L218.553 110.536C218.549 110.432 218.545 110.331 218.543 110.229Z" fill="#C38E60"/>
<path d="M210.655 86.8138L211.548 86.391L218.253 88.8218L217.362 89.2468L210.655 86.8138Z" fill="#C38E60"/>
<path d="M210.986 97.5869L211.876 97.1598L218.587 99.5927L217.694 100.016L210.986 97.5869Z" fill="#C38E60"/>
<path d="M209.828 59.8921L210.721 59.465L217.43 61.8979L216.539 62.3229L209.828 59.8921Z" fill="#C38E60"/>
<path d="M210.161 70.6608L211.054 70.2358L217.758 72.6667L216.868 73.0916L210.161 70.6608Z" fill="#C38E60"/>
<path d="M218.441 104.865L212.148 102.585C212.164 102.838 212.179 103.091 212.179 103.344L217.859 105.402L218.439 105.126C218.439 105.039 218.441 104.952 218.441 104.865Z" fill="#C38E60"/>
<path d="M218.595 115.57L212.372 113.318L212.047 113.473C212.051 113.633 212.055 113.795 212.062 113.953L218.189 116.173L218.586 115.984C218.591 115.844 218.591 115.707 218.595 115.57Z" fill="#C38E60"/>
<path d="M210.491 81.4295L211.382 81.0088L218.091 83.4354L217.198 83.8625L210.491 81.4295Z" fill="#C38E60"/>
<path d="M210.819 92.2003L211.71 91.7775L218.421 94.2083L217.53 94.6333L210.819 92.2003Z" fill="#C38E60"/>
<g style="mix-blend-mode:screen" opacity="0.3">
<path d="M214.141 105.506C214.788 105.49 215.404 105.222 215.856 104.759L214.786 59.8864C213.978 58.4627 212.415 58.216 211.56 59.6271L212.642 105.066C213.078 105.377 213.606 105.532 214.141 105.506Z" fill="#FAC57B"/>
</g>
<path d="M42.5851 196.003C42.5851 201.348 23.1721 201.348 23.1721 196.003V15.6445C23.1716 14.3735 23.4222 13.1149 23.9096 11.9405C24.3971 10.7661 25.1119 9.69893 26.0131 8.8C26.9142 7.90107 27.9842 7.18796 29.1619 6.70142C30.3395 6.21487 31.6018 5.96441 32.8765 5.96436C34.1516 5.96399 35.4142 6.21413 36.5923 6.70048C37.7704 7.18683 38.8408 7.89984 39.7424 8.7988C40.644 9.69777 41.3591 10.7651 41.8469 11.9397C42.3346 13.1143 42.5855 14.3732 42.5851 15.6445V196.003Z" fill="#813D22"/>
<g style="mix-blend-mode:screen" opacity="0.4">
<path d="M24.4963 24.6604L24.7171 196.005C25.162 196.654 25.7523 197.19 26.4411 197.572C27.13 197.954 27.8985 198.17 28.6859 198.205L29.3497 171.81L30.0115 198.423L35.0855 197.985L35.7461 113.522L33.099 167.408L32.2165 26.6393L28.9076 25.9806C28.9076 25.9806 28.2456 52.8108 28.2456 52.151C28.2456 51.4913 27.1426 25.3206 27.1426 25.3206L24.4963 24.6604Z" fill="#813D22"/>
</g>
<g style="mix-blend-mode:screen" opacity="0.4">
<path d="M38.614 25.7586L36.7429 197.104L40.711 196.116L39.7179 25.5376L38.614 25.7586Z" fill="#813D22"/>
</g>
<g style="mix-blend-mode:screen" opacity="0.4">
<path d="M33.7614 24.6599H36.4083L35.7476 107.584L33.7614 24.6599Z" fill="#813D22"/>
</g>
<g style="mix-blend-mode:screen">
<path d="M25.4893 31.479L25.82 194.133C25.82 194.133 30.4529 93.1763 25.4893 31.479Z" fill="#813D22"/>
</g>
<g style="mix-blend-mode:multiply" opacity="0.5">
<path d="M33.9929 6.03271V199.987C38.4486 199.796 42.586 198.472 42.586 196.003V15.6445C42.5856 13.2703 41.7099 10.9791 40.1254 9.20679C38.541 7.43451 36.3584 6.30484 33.9929 6.03271Z" fill="#813D22"/>
</g>
<g style="mix-blend-mode:screen">
<path d="M30.4528 29.8293L31.1135 104.394C31.1135 104.394 27.4754 45.0042 30.4528 29.8293Z" fill="#813D22"/>
</g>
<g style="mix-blend-mode:screen">
<path d="M30.2384 136.068L30.7753 192.486C30.7753 192.486 27.8179 147.551 30.2384 136.068Z" fill="#813D22"/>
</g>
<path d="M313.266 196.003C313.266 201.348 293.851 201.348 293.851 196.003V15.6445C293.851 14.3734 294.102 13.1147 294.589 11.9402C295.077 10.7658 295.792 9.69866 296.693 8.79974C297.595 7.90083 298.665 7.18776 299.843 6.70126C301.021 6.21476 302.283 5.96436 303.558 5.96436C304.833 5.96416 306.095 6.2144 307.273 6.7008C308.451 7.18721 309.522 7.90026 310.423 8.79919C311.325 9.69812 312.04 10.7653 312.528 11.9399C313.016 13.1144 313.267 14.3732 313.266 15.6445L313.266 196.003Z" fill="#813D22"/>
<g style="mix-blend-mode:screen" opacity="0.4">
<path d="M295.176 24.6604L295.397 196.005C295.842 196.654 296.433 197.19 297.122 197.572C297.811 197.953 298.58 198.17 299.368 198.205L300.028 171.81L300.692 198.423L305.766 197.985L306.428 113.522L303.781 167.408L302.898 26.6393L299.587 25.9806C299.587 25.9806 298.927 52.8108 298.927 52.151C298.927 51.4913 297.826 25.3206 297.826 25.3206L295.176 24.6604Z" fill="#813D22"/>
</g>
<g style="mix-blend-mode:screen" opacity="0.4">
<path d="M309.292 25.7586L307.419 197.104L311.391 196.116L310.4 25.5376L309.292 25.7586Z" fill="#813D22"/>
</g>
<g style="mix-blend-mode:screen" opacity="0.4">
<path d="M304.442 24.6599H307.091L306.426 107.584L304.442 24.6599Z" fill="#813D22"/>
</g>
<g style="mix-blend-mode:screen">
<path d="M296.169 31.479L296.502 194.133C296.502 194.133 301.135 93.1763 296.169 31.479Z" fill="#813D22"/>
</g>
<g style="mix-blend-mode:multiply" opacity="0.5">
<path d="M304.677 6.03271V199.987C309.128 199.796 313.265 198.472 313.265 196.003V15.6445C313.265 13.2709 312.39 10.9801 310.807 9.20783C309.223 7.43557 307.041 6.30555 304.677 6.03271Z" fill="#813D22"/>
</g>
<g style="mix-blend-mode:screen">
<path d="M301.135 29.8293L301.796 104.394C301.796 104.394 298.154 45.0042 301.135 29.8293Z" fill="#813D22"/>
</g>
<g style="mix-blend-mode:screen">
<path d="M300.918 136.068L301.455 192.486C301.455 192.486 298.5 147.551 300.918 136.068Z" fill="#813D22"/>
</g>
<path d="M321.663 0.683838H5.74568C3.66565 2.51376 2.1176 4.86784 1.26374 7.49936C0.409871 10.1309 0.281631 12.943 0.892475 15.6409C1.32011 17.055 2.11769 18.3302 3.20326 19.3353C4.28883 20.3403 5.62324 21.039 7.06934 21.3597H320.34C321.786 21.039 323.12 20.3403 324.206 19.3353C325.291 18.3302 326.089 17.055 326.517 15.6409C327.127 12.943 326.999 10.1309 326.145 7.49936C325.292 4.86784 323.743 2.51376 321.663 0.683838Z" fill="#813D22"/>
<g style="mix-blend-mode:screen" opacity="0.4">
<path d="M7.06864 2.88281H319.222C319.222 2.88281 322.311 3.98261 322.97 5.74219H276.426L321.869 7.06195C323.316 9.02421 323.948 11.4673 323.634 13.8827L150.241 14.1005L235.833 11.2432L4.19824 7.50349C4.2982 6.56788 4.60811 5.66671 5.10502 4.86682C5.60192 4.06692 6.27305 3.38883 7.06864 2.88281Z" fill="#813D22"/>
</g>
<g style="mix-blend-mode:screen" opacity="0.4">
<path d="M3.53911 10.5833C3.53911 10.5833 2.4339 14.7603 4.19975 16.5201L56.2646 16.9599L5.30495 18.5017C5.30495 18.5017 5.30497 20.2613 9.7149 20.4833L320.767 18.7197L322.532 16.0802L108.989 16.5203L143.842 12.5632L3.53911 10.5833Z" fill="#813D22"/>
</g>
<g style="mix-blend-mode:multiply" opacity="0.5">
<path d="M0.467285 12.2454C0.481293 13.3892 0.623662 14.528 0.89178 15.6402C1.31941 17.0544 2.117 18.3296 3.20257 19.3346C4.28814 20.3397 5.62255 21.0384 7.06864 21.3591H320.34C321.786 21.0384 323.12 20.3397 324.206 19.3346C325.291 18.3296 326.089 17.0544 326.517 15.6402C326.785 14.5282 326.927 13.3892 326.937 12.2454H0.467285Z" fill="#813D22"/>
</g>
<g style="mix-blend-mode:screen">
<path d="M2.65662 9.64748C2.65662 9.64748 2.98543 3.2147 7.45376 1.729H319.222L9.05425 2.88283L112.297 4.6424L9.49325 5.96427L32.4382 7.28166L2.65662 9.64748Z" fill="#813D22"/>
</g>
<g style="mix-blend-mode:screen">
<path d="M112.959 4.20264H267.382C267.382 4.20264 132.813 6.62411 112.959 4.20264Z" fill="#813D22"/>
</g>
<g style="mix-blend-mode:screen">
<path d="M157.962 7.7218L308.194 8.60383C308.194 8.60383 177.817 10.1414 157.962 7.7218Z" fill="#813D22"/>
</g>
<g style="mix-blend-mode:screen">
<path d="M35.5266 14.7603C35.5266 14.7603 89.1336 15.6402 104.796 14.5425C104.796 14.5425 59.1314 12.7808 35.5266 14.7603Z" fill="#813D22"/>
</g>
<g style="mix-blend-mode:screen">
<path d="M86.9276 18.6449C86.9276 18.6449 152.143 19.3036 171.196 18.4787C171.196 18.4787 115.644 17.159 86.9276 18.6449Z" fill="#813D22"/>
</g>
<g style="mix-blend-mode:screen">
<path d="M222.816 18.2048C222.816 18.2048 288.036 18.8648 307.091 18.0389C307.091 18.0389 251.536 16.7213 222.816 18.2048Z" fill="#813D22"/>
</g>
<g style="mix-blend-mode:screen" opacity="0.5">
<path d="M27.5266 290.13C26.9917 287.636 26.0491 285.346 25.6994 282.708C25.5065 279.604 25.5207 276.49 25.742 273.387C26.0106 266.17 25.5721 258.943 24.4329 251.811C24.3331 251.301 23.407 252.398 23.3861 252.689C22.8107 260.955 22.5349 269.137 22.5349 277.435C22.5349 281.511 22.2269 289.118 26.4849 291.268C26.9898 291.522 27.6204 290.557 27.5266 290.13Z" fill="white"/>
</g>
<g style="mix-blend-mode:screen" opacity="0.5">
<path d="M24.705 311.899C24.0213 307.552 22.4852 303.382 20.1846 299.627C19.9641 299.232 19.3002 300.071 19.3335 300.345C19.9089 305.043 20.7008 309.645 21.3834 314.31C22.1201 319.361 20.4843 324.386 21.3418 329.379C21.4418 329.956 22.5197 328.777 22.5613 328.495C22.7788 325.664 23.2632 322.86 24.0079 320.12C24.8822 317.472 25.121 314.656 24.705 311.899Z" fill="white"/>
</g>
<g style="mix-blend-mode:screen" opacity="0.5">
<path d="M52.4341 306.914C49.4641 309.821 47.7414 313.764 47.6286 317.912C47.0438 323.444 42.9107 330.707 46.3925 335.998C46.8232 336.654 47.8097 335.255 47.8014 334.811C47.7057 329.225 49.5788 325.042 50.7733 319.759C51.7016 315.671 51.0273 310.882 52.947 307.13C53.2 306.636 52.7047 306.657 52.4341 306.914Z" fill="white"/>
</g>
<g style="mix-blend-mode:screen" opacity="0.5">
<path d="M75.531 282.719C75.4645 282.62 75.3645 282.677 75.2812 282.728C73.1002 284.153 71.8682 288.065 70.6756 290.243C69.2957 292.762 68.0512 297.016 71.0774 298.876C71.4373 299.1 72.0138 298.323 71.9763 298.008C71.5584 294.421 72.184 290.79 73.7786 287.548C74.0742 286.84 76.0493 283.456 75.531 282.719Z" fill="white"/>
</g>
<g style="mix-blend-mode:screen" opacity="0.5">
<path d="M117.004 299.677C114.827 296.826 112.13 294.651 110.373 291.443C108.862 288.201 107.635 284.836 106.706 281.383C105.666 278.358 105.106 275.241 103.955 272.232C102.788 269.856 100.895 267.909 98.5485 266.672C98.3466 266.539 97.9074 267.056 98.0283 267.243C104.871 277.664 103.362 294.712 116.322 300.527C116.661 300.681 117.232 299.976 117.004 299.677Z" fill="white"/>
</g>
<g style="mix-blend-mode:screen" opacity="0.5">
<path d="M130.031 347.225C125.177 341.228 124.539 335.372 124.497 327.832C124.48 324.993 124.031 322.18 123.823 319.349C123.87 317.456 124.26 315.588 124.971 313.833C125.121 313.269 124.451 313.685 124.301 313.867C120.38 318.635 121.242 322.341 121.608 328.305C122.024 335.099 121.633 345.084 128.942 348.578C129.473 348.83 130.403 347.685 130.031 347.225Z" fill="white"/>
</g>
<g style="mix-blend-mode:screen" opacity="0.5">
<path d="M167.228 287.203C165.349 288.597 164.003 290.587 163.411 292.846C162.379 296.514 159.44 301.216 160.838 305.13C161.14 305.968 162.478 304.28 162.537 303.897C163.435 298.223 165.148 292.708 167.623 287.521C167.792 287.164 167.538 286.961 167.228 287.203Z" fill="white"/>
</g>
<g style="mix-blend-mode:screen" opacity="0.5">
<path d="M208.841 298.145C205.929 296.594 202.791 295.664 199.935 293.954C197.03 292.023 194.387 289.725 192.073 287.118C189.77 284.487 187.315 281.992 184.72 279.646C181.902 277.326 178.829 275.33 175.561 273.699C175.257 273.554 174.679 274.241 174.92 274.496C179.819 279.715 185.076 284.52 189.881 289.843C194.742 295.232 200.361 299.199 207.893 299.486C208.277 299.502 209.342 298.411 208.841 298.145Z" fill="white"/>
</g>
<g style="mix-blend-mode:screen" opacity="0.5">
<path d="M188.222 312.368C188.385 311.55 187.467 312.102 187.232 312.417C186.299 313.717 185.655 315.199 185.342 316.767C185.029 318.334 185.054 319.95 185.417 321.506C186.287 326.03 186.703 330.586 187.169 335.156C187.228 335.749 188.056 334.799 188.081 334.492C188.372 331.205 188.389 327.897 188.592 324.602C188.843 320.56 187.432 316.302 188.222 312.368Z" fill="white"/>
</g>
<g style="mix-blend-mode:screen" opacity="0.5">
<path d="M227.702 322.486C226.995 319.207 224.314 313.231 225.983 310.019C226.277 309.45 225.688 309.425 225.372 309.761C224.412 310.788 223.73 312.04 223.389 313.401C223.047 314.762 223.058 316.187 223.419 317.543C224.089 320.406 225.205 323.158 226.06 325.972C226.851 328.578 226.882 331.334 227.669 333.956C227.852 334.567 228.914 333.28 228.909 332.915C228.858 329.407 228.453 325.913 227.702 322.486Z" fill="white"/>
</g>
<g style="mix-blend-mode:screen" opacity="0.5">
<path d="M240.91 292.327C239.421 290.072 238.327 287.581 237.675 284.96C236.895 281.248 236.21 277.486 235.484 273.759C235.392 273.292 234.458 274.291 234.461 274.618C234.532 280.155 233.558 290.878 239.618 293.738C240.154 293.995 241.201 292.841 240.91 292.327Z" fill="white"/>
</g>
<g style="mix-blend-mode:screen" opacity="0.5">
<path d="M280.772 300.772C278.378 303.661 277.164 307.343 277.372 311.085C277.216 317.077 276.752 323.057 275.982 329.001C275.934 329.433 276.685 328.777 276.733 328.54C277.682 323.855 278.883 319.186 279.638 314.472C280.323 310.21 279.259 304.872 281.388 301.025C281.776 300.32 281.176 300.287 280.772 300.772Z" fill="white"/>
</g>
<g style="mix-blend-mode:screen" opacity="0.5">
<path d="M271.724 279.271C270.662 280.9 266.943 288.156 270.639 288.916C271.291 289.05 272.233 287.841 272.152 287.253C271.869 286.04 271.696 284.803 271.636 283.558C271.795 282.016 272.152 280.502 272.698 279.051C272.96 278.253 271.877 279.034 271.724 279.271Z" fill="white"/>
</g>
</svg>
