<svg width="58" height="43" viewBox="0 0 58 43" fill="none" xmlns="http://www.w3.org/2000/svg">
<path d="M57.9271 34.3539C57.6592 36.5209 56.2165 37.7879 54.4762 38.8026C52.0507 40.217 49.387 40.978 46.6558 41.4984C40.1101 42.7496 33.3899 42.784 26.8318 41.5999C23.6891 41.0398 20.625 40.1963 17.895 38.4443C17.1247 37.9521 16.4434 37.3328 15.8803 36.6127C14.9864 35.4715 15.0552 34.1472 15.0871 32.8223C15.0831 32.7897 15.0867 32.7566 15.0975 32.7255C15.1083 32.6945 15.126 32.6663 15.1494 32.6432C15.1728 32.6201 15.2011 32.6026 15.2323 32.5922C15.2635 32.5817 15.2966 32.5785 15.3292 32.5829C15.3478 32.5836 15.3665 32.5831 15.385 32.5814C16.5849 32.4274 16.6972 32.4777 16.6243 33.6546C16.5429 34.9684 17.1025 35.9079 18.0919 36.6702C18.6061 37.0867 19.1704 37.4372 19.7716 37.7137C19.7716 37.1585 19.7838 36.663 19.7672 36.1686C19.7569 35.8627 19.8591 35.75 20.179 35.7367C21.3311 35.6883 21.3307 35.6763 21.3307 36.8164C21.3307 38.5178 21.3255 38.5344 22.9309 39.0316C23.8355 39.3118 24.7646 39.5122 25.6742 39.7777C26.0709 39.8935 26.1657 39.764 26.1481 39.3912C26.1263 38.9266 26.155 38.4599 26.1393 37.9948C26.1293 37.7005 26.2013 37.5696 26.5372 37.5583C27.7041 37.519 27.7035 37.5046 27.7035 38.6781C27.7035 38.7712 27.7017 38.8643 27.7037 38.9574C27.7372 40.493 27.444 40.1098 28.9479 40.3674C29.9002 40.5304 30.8725 40.5731 31.8304 40.7084C32.3469 40.7813 32.5911 40.6807 32.5258 40.0944C32.4745 39.6345 32.522 39.1643 32.5146 38.6987C32.5111 38.4734 32.5787 38.339 32.8297 38.3635C32.8669 38.3658 32.9042 38.3656 32.9414 38.3629C34.0754 38.3217 34.0754 38.3217 34.0754 39.4456C34.0754 40.8439 34.0754 40.8519 35.4545 40.8605C36.4599 40.8668 37.4655 40.8389 38.4709 40.8473C38.7837 40.8499 38.8987 40.7492 38.8871 40.4323C38.8673 39.893 38.8963 39.3518 38.8772 38.8124C38.8657 38.4898 38.9487 38.3588 39.3068 38.3535C40.4421 38.337 40.4418 38.3207 40.4418 39.444C40.4418 40.7455 40.4432 40.7584 41.7551 40.6249C42.7729 40.5214 43.7862 40.3747 44.8029 40.2591C45.1388 40.221 45.2811 40.0844 45.262 39.7236C45.2315 39.1478 45.2652 38.569 45.2498 37.9921C45.2418 37.6952 45.3171 37.5692 45.6499 37.5583C46.8142 37.5198 46.8138 37.5057 46.8138 38.6807C46.8138 39.8903 46.8149 39.8947 48.0072 39.6037C49.1088 39.333 50.1944 39.0008 51.2588 38.6085C51.3756 38.5834 51.4784 38.5148 51.5465 38.4167C51.6146 38.3186 51.643 38.1983 51.6258 38.0801C51.6079 37.4661 51.6346 36.8507 51.6153 36.2367C51.6046 35.8958 51.6806 35.7263 52.0723 35.7371C53.4408 35.7749 53.1442 35.5766 53.1792 36.804C53.187 37.0809 53.1803 37.3583 53.1803 37.6481C54.0749 37.4028 54.8649 36.872 55.4301 36.1365C55.9954 35.4009 56.3049 34.5009 56.3117 33.5733C56.3117 32.6674 56.3117 31.7616 56.3117 30.7301C55.1924 31.6866 53.9258 32.4557 52.561 33.0078C49.6897 34.2097 46.6759 34.8482 43.6045 35.2475C40.001 35.718 36.3594 35.8268 32.7343 35.5722C28.3171 35.2612 23.9717 34.5921 19.8767 32.7832C19.8596 32.7757 19.842 32.7696 19.8251 32.7618C18.7181 32.2561 18.7259 32.2606 19.3481 31.1923C19.4866 30.9544 19.5866 30.8866 19.8559 31.0243C22.6242 32.4397 25.6091 33.1247 28.6567 33.5714C33.86 34.3377 39.1477 34.3357 44.3505 33.5656C47.3231 33.128 50.2332 32.4444 52.9523 31.1098C53.8695 30.6921 54.7057 30.1155 55.4222 29.4067C56.5962 28.182 56.5994 26.9369 55.4113 25.7265C54.1796 24.4719 52.612 23.7771 50.9979 23.1861C47.7396 21.9933 44.3468 21.4535 40.905 21.1777C39.9962 21.1048 39.0836 21.0721 38.1722 21.0453C37.8375 21.0355 37.6807 20.9708 37.6852 20.5768C37.698 19.4605 37.6784 19.4416 38.8065 19.4905C43.4582 19.6922 48.0353 20.305 52.3938 22.0553C53.8447 22.5969 55.1832 23.4015 56.342 24.4288C57.2307 25.2379 57.7942 26.343 57.9272 27.5374L57.9271 34.3539Z" fill="white"/>
<path d="M9.60824 32.1659C8.93534 32.1537 8.26514 32.0772 7.60679 31.9375C6.14874 31.6062 5.04857 30.8508 4.32445 29.4971C3.44773 27.8581 2.52027 26.2425 1.53602 24.6659C0.650297 23.247 0.599593 21.8067 1.14191 20.2869C1.87665 18.228 3.17786 16.5338 4.64033 14.9588C8.38264 10.9287 12.8574 7.87448 17.684 5.31152C21.4591 3.3069 25.3886 1.69167 29.6126 0.894418C31.5609 0.526684 33.5198 0.34988 35.4825 0.823925C36.1305 0.959846 36.7407 1.23675 37.2697 1.63498C37.7987 2.03321 38.2336 2.543 38.5434 3.12817C39.4546 4.79141 40.389 6.44529 41.3946 8.05236C42.2827 9.47181 42.3374 10.9128 41.7913 12.4312C41.1182 14.3026 39.9677 15.8767 38.6635 17.344C35.7172 20.6588 32.2127 23.291 28.4454 25.5861C24.1854 28.1813 19.7058 30.2862 14.8426 31.498C13.1328 31.9396 11.3742 32.164 9.60824 32.1659ZM4.19112 26.1055C4.736 27.0513 5.27259 27.9009 5.72648 28.7925C6.22053 29.7632 7.02 30.2525 8.04012 30.4396C8.5351 30.5247 9.03476 30.58 9.53638 30.6051C9.78526 30.6203 10.1321 30.7432 10.2665 30.5191C10.3776 30.3339 10.1002 30.1003 9.98437 29.8965C9.36826 28.8129 9.37012 28.8258 10.461 28.2483C10.7123 28.1153 10.8054 28.1717 10.9262 28.391C11.2312 28.9449 11.5724 29.4793 11.8676 30.0381C11.9144 30.1753 12.0139 30.2884 12.1441 30.3525C12.2742 30.4165 12.4245 30.4263 12.5619 30.3797C13.6617 30.1813 14.7462 29.9258 15.8212 29.6274C16.9966 29.3009 16.9948 29.2943 16.3934 28.2509C15.7807 27.1878 15.7852 27.1968 16.8844 26.6398C17.1293 26.5157 17.2345 26.5581 17.3578 26.7844C17.6512 27.3234 17.9827 27.842 18.2685 28.3847C18.4204 28.6731 18.5739 28.7356 18.8797 28.6012C19.8324 28.1825 20.8041 27.807 21.7565 27.3872C22.9475 26.8623 22.9423 26.8504 22.2897 25.7192C21.7047 24.705 21.7112 24.7171 22.7675 24.1576C23.0389 24.0138 23.1528 24.067 23.2859 24.3113C23.5616 24.8175 23.8735 25.3044 24.1437 25.8134C24.2805 26.0713 24.4089 26.1074 24.6605 25.9602C25.5434 25.4437 26.4434 24.9565 27.3258 24.4392C28.5064 23.7471 28.5018 23.7395 27.8291 22.5728C27.224 21.5236 27.2315 21.5373 28.2962 20.9604C28.5815 20.8059 28.6753 20.8994 28.801 21.1284C29.0694 21.6175 29.3724 22.088 29.6316 22.5816C29.7664 22.8381 29.88 22.8309 30.0908 22.6741C30.8822 22.0854 31.691 21.5201 32.4793 20.9274C32.8786 20.6273 33.4669 20.3421 33.5651 19.949C33.6512 19.6045 33.1804 19.1139 32.9409 18.6962C32.3345 17.6383 32.3364 17.6502 33.4323 17.0883C33.6779 16.9624 33.7835 16.9991 33.9043 17.2274C34.1129 17.6217 34.3713 17.9909 34.5636 18.3923C34.7723 18.828 34.939 18.9348 35.3375 18.5356C36.1268 17.7447 36.9255 16.9646 37.6623 16.1233C38.3568 15.3305 38.3596 15.3331 37.8206 14.4017C37.7275 14.2407 37.636 14.0787 37.5429 13.9177C36.9564 12.9044 36.9611 12.9132 38.0021 12.3479C38.2531 12.2115 38.3819 12.2178 38.5218 12.4831C38.7629 12.9402 39.0393 13.3786 39.3296 13.8742C39.941 13.0079 40.3635 12.0228 40.5699 10.9827C40.6801 10.5434 40.6407 10.0798 40.4578 9.6654C39.8581 8.53785 39.2116 7.43523 38.5453 6.25488C37.5497 9.03283 35.7853 11.1666 33.7641 13.0893C27.9062 18.6704 20.8326 22.8153 13.1003 25.1975C10.2442 26.0929 7.32658 26.6513 4.19112 26.1055ZM33.0375 2.09429C31.4168 2.14549 29.807 2.37869 28.2385 2.7895C22.9753 4.15032 18.1832 6.54351 13.6585 9.50304C10.3884 11.642 7.35072 14.0637 4.85088 17.0981C3.81731 18.3527 2.88377 19.6764 2.45925 21.2809C2.02025 22.9403 2.65867 24.0489 4.30771 24.5112C4.8104 24.6501 5.32736 24.7308 5.84845 24.7519C7.95757 24.8469 10.0038 24.4684 12.0146 23.893C18.2668 22.1042 23.8747 19.0476 29.0327 15.1341C31.4294 13.3156 33.6321 11.2862 35.4185 8.84373C36.1668 7.88937 36.7307 6.80396 37.0814 5.64304C37.5407 3.93748 36.9343 2.86387 35.2416 2.36811C34.5233 2.17419 33.7814 2.08205 33.0375 2.09429Z" fill="white"/>
<path d="M35.6336 32.2507C32.3955 32.2349 28.3355 31.9746 24.3485 31.0038C24.2582 30.9819 24.1688 30.9567 24.0801 30.9294C22.7656 30.5253 22.9145 30.9075 23.3545 29.4433C23.4392 29.1615 23.5834 29.1602 23.8075 29.2261C27.0454 30.1794 30.3778 30.503 33.7281 30.6351C37.977 30.8027 42.2151 30.6584 46.4102 29.8797C48.0207 29.5808 49.6199 29.2261 51.0844 28.4512C51.4858 28.2389 52.056 28.0511 52.0392 27.5426C52.0239 27.083 51.4842 26.8799 51.0928 26.6769C49.5381 25.8707 47.8471 25.4972 46.1413 25.2027C42.1916 24.5378 38.1818 24.2999 34.1812 24.4931C33.6758 24.515 33.547 24.379 33.5542 23.8914C33.5682 22.9536 33.5394 22.9305 34.457 22.9083C39.4406 22.7877 44.3924 23.0237 49.2446 24.2999C49.9833 24.4899 50.7024 24.7494 51.3922 25.075C51.6268 25.1872 51.8607 25.3035 52.0838 25.4364C54.1826 26.6868 54.19 28.4385 52.0939 29.6829C50.7318 30.4915 49.219 30.8892 47.6887 31.2149C43.9943 32.0013 40.2488 32.2541 35.6336 32.2507Z" fill="white"/>
<path d="M32.1268 3.77907C32.6121 3.76747 33.0958 3.83772 33.5577 3.98688C34.0298 4.12265 34.4288 4.44007 34.6672 4.86956C34.9057 5.29904 34.9641 5.80555 34.8297 6.27805C34.5896 7.34997 33.9519 8.19939 33.2591 9.00725C31.6481 10.8861 29.7367 12.432 27.7365 13.866C23.1346 17.1654 18.2326 19.9184 12.8981 21.8571C11.1659 22.4866 9.40463 23.0277 7.53697 23.0766C7.1275 23.0959 6.71727 23.0609 6.31697 22.9726C4.97252 22.649 4.37689 21.6391 4.7863 20.3213C5.09511 19.4397 5.58273 18.6315 6.21859 17.9473C8.17643 15.6668 10.535 13.8482 13.0011 12.1684C17.4451 9.1415 22.1304 6.56951 27.2321 4.81143C28.8041 4.22856 30.4534 3.88069 32.1268 3.77907ZM7.53681 21.5131C7.98445 21.5174 8.43113 21.4708 8.86827 21.3743C9.65671 21.2404 10.4333 21.0442 11.1908 20.7876C17.7455 18.5737 23.6511 15.1838 29.0436 10.8796C30.4704 9.74079 31.827 8.51522 32.8334 6.96477C33.0908 6.56822 33.5169 6.09095 33.2508 5.65739C32.9755 5.20877 32.3431 5.34262 31.8487 5.36688C30.474 5.46813 29.1213 5.76884 27.8333 6.25956C21.5673 8.49374 15.7244 11.7716 10.5517 15.9544C9.09551 17.1167 7.71166 18.367 6.68885 19.9522C6.44329 20.3328 6.05723 20.7758 6.30077 21.2165C6.53643 21.643 7.10251 21.4813 7.53681 21.5131Z" fill="white"/>
</svg>
